<?xml version="1.0" encoding="iso-8859-1"?>
<!-- Generator: Adobe Illustrator 19.0.0, SVG Export Plug-In . SVG Version: 6.00 Build 0)  -->
<svg version="1.1" id="Capa_1" xmlns="http://www.w3.org/2000/svg" xmlns:xlink="http://www.w3.org/1999/xlink" x="0px" y="0px"
	 viewBox="0 0 387.4 387.4" style="enable-background:new 0 0 387.4 387.4;" xml:space="preserve">
<path style="fill:#2BAE66;" d="M193.7,10c101.5,0,183.7,82.3,183.7,183.7s-82.2,183.7-183.7,183.7S10,295.2,10,193.7
	S92.2,10,193.7,10z M297.9,214.5v-41.7h-83.4V89.4h-41.7v83.4H89.4v41.7h83.4v83.4h41.7v-83.4H297.9z"/>
<polygon style="fill:#FCF6F5;" points="297.9,172.9 297.9,214.5 214.5,214.5 214.5,297.9 172.9,297.9 172.9,214.5 89.5,214.5 
	89.5,172.9 172.9,172.9 172.9,89.5 214.5,89.5 214.5,172.9 "/>
<path d="M193.7,387.4c106.8,0,193.7-86.9,193.7-193.7S300.5,0,193.7,0S0,86.9,0,193.7S86.9,387.4,193.7,387.4z M193.7,20
	c95.8,0,173.7,77.9,173.7,173.7s-77.9,173.7-173.7,173.7S20,289.5,20,193.7S97.9,20,193.7,20z"/>
<path d="M89.5,224.7h73.2v73.2c0,5.5,4.6,9.8,10.2,9.8h41.7c5.5,0,10.2-4.2,10.2-9.8v-73.2H298c5.5,0,9.8-4.6,9.8-10.2v-41.7
	c0-5.5-4.2-10.2-9.8-10.2h-73.3V89.4c0-5.5-4.6-9.8-10.2-9.8h-41.7c-5.5,0-10.2,4.2-10.2,9.8v73.3H89.4c-5.5,0-9.8,4.6-9.8,10.2
	v41.7C79.7,220.1,83.9,224.7,89.5,224.7z M99.7,182.7h73.2c5.5,0,9.8-4.3,9.8-9.8V99.7h22v73.2c0,5.5,4.3,9.8,9.8,9.8h73.2v22h-73.2
	c-5.5,0-9.8,4.3-9.8,9.8v73.2h-22v-73.2c0-5.5-4.3-9.8-9.8-9.8H99.7V182.7z"/>
<g>
</g>
<g>
</g>
<g>
</g>
<g>
</g>
<g>
</g>
<g>
</g>
<g>
</g>
<g>
</g>
<g>
</g>
<g>
</g>
<g>
</g>
<g>
</g>
<g>
</g>
<g>
</g>
<g>
</g>
</svg>
