<svg xmlns="http://www.w3.org/2000/svg" viewBox="0 0 387.4 387.4"><path d="M193.7 10c101.5 0 183.7 82.3 183.7 183.7s-82.2 183.7-183.7 183.7S10 295.2 10 193.7 92.2 10 193.7 10zm104.2 204.5v-41.7h-83.4V89.4h-41.7v83.4H89.4v41.7h83.4v83.4h41.7v-83.4h83.4z" fill="#2bae66"/><path fill="#fcf6f5" d="M297.9 172.9v41.6h-83.4v83.4h-41.6v-83.4H89.5v-41.6h83.4V89.5h41.6v83.4z"/><path d="M193.7 387.4c106.8 0 193.7-86.9 193.7-193.7S300.5 0 193.7 0 0 86.9 0 193.7s86.9 193.7 193.7 193.7zm0-367.4c95.8 0 173.7 77.9 173.7 173.7s-77.9 173.7-173.7 173.7S20 289.5 20 193.7 97.9 20 193.7 20z"/><path d="M89.5 224.7h73.2v73.2c0 5.5 4.6 9.8 10.2 9.8h41.7c5.5 0 10.2-4.2 10.2-9.8v-73.2H298c5.5 0 9.8-4.6 9.8-10.2v-41.7c0-5.5-4.2-10.2-9.8-10.2h-73.3V89.4c0-5.5-4.6-9.8-10.2-9.8h-41.7c-5.5 0-10.2 4.2-10.2 9.8v73.3H89.4c-5.5 0-9.8 4.6-9.8 10.2v41.7c.1 5.5 4.3 10.1 9.9 10.1zm10.2-42h73.2c5.5 0 9.8-4.3 9.8-9.8V99.7h22v73.2c0 5.5 4.3 9.8 9.8 9.8h73.2v22h-73.2c-5.5 0-9.8 4.3-9.8 9.8v73.2h-22v-73.2c0-5.5-4.3-9.8-9.8-9.8H99.7v-22z"/></svg>
