<svg viewBox="0 0 512 512" xmlns="http://www.w3.org/2000/svg"><path d="M473.599 467.274H88.939c-25.065 0-45.384-20.357-45.384-45.468 0-25.111 20.319-45.468 45.384-45.468h384.659c-20.045 26.985-20.045 63.95.001 90.936z" fill="#fff7e8"/><path d="M473.599 376.337h-40c-20.045 26.986-20.045 63.951 0 90.937h40c-20.046-26.986-20.046-63.951 0-90.937z" fill="#fff1d6"/><path d="M486.376 504.5H90.041C44.528 504.5 7.5 467.404 7.5 421.806s37.028-82.694 82.541-82.694h396.335c10.01 0 18.124 8.13 18.124 18.158s-8.114 18.158-18.124 18.158H90.041c-25.526 0-46.293 20.806-46.293 46.379s20.767 46.379 46.293 46.379h396.335c10.01 0 18.124 8.13 18.124 18.158s-8.114 18.156-18.124 18.156z" fill="#ff7893"/><path d="M473.599 135.663H88.939c-25.065 0-45.384-20.357-45.384-45.468 0-25.111 20.319-45.468 45.384-45.468h384.659c-20.045 26.985-20.045 63.95.001 90.936z" fill="#fff7e8"/><path d="M473.599 44.726h-40c-20.045 26.986-20.045 63.951 0 90.937h40c-20.046-26.986-20.046-63.951 0-90.937z" fill="#fff1d6"/><path d="M486.376 172.889H90.041c-45.513 0-82.541-37.096-82.541-82.694C7.5 44.596 44.528 7.5 90.041 7.5h396.335c10.01 0 18.124 8.13 18.124 18.157s-8.114 18.157-18.124 18.157H90.041c-25.526 0-46.293 20.806-46.293 46.379s20.767 46.379 46.293 46.379h396.335c10.01 0 18.124 8.13 18.124 18.158 0 10.029-8.114 18.159-18.124 18.159z" fill="#ff9e5e"/><g><path d="M38.401 210.949H423.06c25.065 0 45.384 20.357 45.384 45.468 0 25.112-20.319 45.468-45.384 45.468H38.401c20.046-26.985 20.046-63.95 0-90.936z" fill="#fff7e8"/><path d="M25.624 173.723h396.335c45.513 0 82.541 37.096 82.541 82.694s-37.028 82.694-82.541 82.694H25.624c-10.01 0-18.124-8.13-18.124-18.158s8.114-18.158 18.124-18.158h396.335c25.526 0 46.293-20.806 46.293-46.379s-20.767-46.379-46.293-46.379H25.624c-10.01 0-18.124-8.13-18.124-18.158 0-10.026 8.114-18.156 18.124-18.156z" fill="#59a1a5"/><path d="M421.959 173.723h-40c36.471 0 67.472 23.83 78.359 56.757 5.007 7.408 7.934 16.336 7.934 25.937s-2.927 18.529-7.934 25.937c-10.887 32.927-41.888 56.757-78.359 56.757h40c45.513 0 82.541-37.096 82.541-82.694s-37.028-82.694-82.541-82.694z" fill="#419296"/></g><path d="M315.083 256.417h65.875v155.454l-32.36-31.262-33.515 31.262z" fill="#ffd88f"/><g><path d="M348.02 256.417v124.731l.578-.539 32.36 31.262V256.417z" fill="#ffc963"/></g><path d="M512 154.73c0-14.147-11.495-25.657-25.624-25.657h-8.266c-7.887-11.481-12.046-24.867-12.046-38.879s4.159-27.398 12.047-38.88h8.265c32.977 0 33.203-51.314 0-51.314H191.955c-9.697 0-9.697 15 0 15h294.421c13.297 0 13.901 21.314 0 21.314H90.041c-29.662 0-53.793 24.17-53.793 53.88 0 29.709 24.132 53.879 53.793 53.879h396.335c13.553 0 13.683 22.149 0 22.149H90.041c-19.936 0-38.756-7.965-52.993-22.427C22.83 129.354 15 110.317 15 90.194 15 48.732 48.663 15 90.041 15h61.952c9.697 0 9.697-15 0-15H90.041C40.392 0 0 40.461 0 90.194c0 24.085 9.361 46.858 26.358 64.125a91.965 91.965 0 0014.372 11.903H25.624C11.495 166.223 0 177.732 0 191.881c0 14.147 11.495 25.657 25.624 25.657h8.265c7.888 11.481 12.047 24.866 12.047 38.879s-4.159 27.398-12.047 38.88h-8.265C11.495 295.297 0 306.807 0 320.954s11.495 25.657 25.624 25.657h14.753C16.063 362.778 0 390.446 0 421.806 0 471.539 40.392 512 90.041 512h396.335c32.977 0 33.203-51.315 0-51.315h-8.266c-7.887-11.481-12.046-24.867-12.046-38.879s4.159-27.397 12.046-38.879h8.266c32.977 0 33.203-51.315 0-51.315h-14.753C495.937 315.444 512 287.776 512 256.417s-16.063-59.027-40.377-75.194h14.753c13.89 0 25.624-12.132 25.624-26.493zM51.248 90.194c0-21.438 17.403-38.88 38.793-38.88h370.578c-6.277 11.929-9.555 25.157-9.555 38.88 0 13.722 3.278 26.95 9.554 38.879H90.041c-21.391 0-38.793-17.441-38.793-38.879zm.133 127.344h370.578c21.391 0 38.793 17.441 38.793 38.879s-17.403 38.88-38.793 38.88h-33.501v-31.38h17.927c9.697 0 9.697-15 0-15H148.086c-9.697 0-9.697 15 0 15h159.497v31.38H51.381c6.277-11.929 9.555-25.157 9.555-38.88s-3.279-26.95-9.555-38.879zm271.202 46.379h50.875v130.279l-19.648-18.981a7.5 7.5 0 00-10.327-.091l-20.899 19.494V263.917zM25.624 331.611c-5.858 0-10.624-4.781-10.624-10.657s4.766-10.657 10.624-10.657h281.959v21.314zm434.995 129.074H370c-9.697 0-9.697 15 0 15h116.376c13.297 0 13.901 21.315 0 21.315H90.041C48.663 497 15 463.268 15 421.806s33.663-75.194 75.041-75.194h217.542v21.315H90.041c-29.662 0-53.793 24.17-53.793 53.879s24.132 53.879 53.793 53.879h239.934c9.697 0 9.697-15 0-15H90.041c-21.391 0-38.793-17.441-38.793-38.879s17.403-38.879 38.793-38.879h217.542v28.943c0 6.43 7.914 9.871 12.616 5.484l28.309-26.405 27.239 26.314c4.782 4.624 12.711 1.018 12.711-5.394v-28.943h72.161c-6.276 11.929-9.554 25.156-9.554 38.879s3.278 26.951 9.554 38.88zm25.757-114.074c13.298 0 13.901 21.315 0 21.315h-97.918v-21.315h33.501zM497 256.417c0 41.462-33.663 75.194-75.041 75.194h-33.501v-21.314h33.501c29.662 0 53.793-24.17 53.793-53.88 0-29.709-24.132-53.879-53.793-53.879H25.624c-5.858 0-10.624-4.781-10.624-10.657 0-5.877 4.766-10.658 10.624-10.658H421.959c41.378 0 75.041 33.732 75.041 75.194z"/></svg>