<svg viewBox="-60 100 700 350" fill="none" xmlns="http://www.w3.org/2000/svg"><path d="M473.7 399.78H101.52c-3 0-5.4-2.4-5.4-5.4 0-3 2.4-5.4 5.4-5.4H473.7c3 0 5.4 2.4 5.4 5.4 0 3-2.4 5.4-5.4 5.4z" fill="#C9C9C9"/><path d="M171.54 343.98c-5.76 0-10.38-4.68-10.38-10.38 0-5.7 4.68-10.38 10.38-10.38h58.8v20.82h-58.8v-.06z" fill="#CECECE"/><path d="M233.76 347.58h-62.22c-7.74 0-13.98-6.3-13.98-13.98 0-7.74 6.3-13.98 13.98-13.98h62.22v27.96z" fill="#fff"/><path d="M167.7 330.36h62.64M167.7 336.72h62.64M171.54 343.98c-5.76 0-10.38-4.68-10.38-10.38 0-5.7 4.68-10.38 10.38-10.38h58.8v20.82h-58.8v-.06z" stroke="#1F3969" stroke-width="4" stroke-miterlimit="10" stroke-linecap="round" stroke-linejoin="round"/><path d="M171.54 343.98c-5.76 0-10.38-4.68-10.38-10.38 0-5.7 4.68-10.38 10.38-10.38h59.82l2.4-3.6h-62.22c-7.74 0-13.98 6.3-13.98 13.98 0 7.74 6.3 13.98 13.98 13.98h62.22l-2.4-3.6h-59.82z" fill="#FF3E3E"/><path d="M171.54 343.98c-5.76 0-10.38-4.68-10.38-10.38 0-5.7 4.68-10.38 10.38-10.38h59.82l2.4-3.6h-62.22c-7.74 0-13.98 6.3-13.98 13.98 0 7.74 6.3 13.98 13.98 13.98h62.22l-2.4-3.6h-59.82z" stroke="#1F3969" stroke-width="4" stroke-miterlimit="10" stroke-linecap="round" stroke-linejoin="round"/><path opacity=".28" d="M220.38 319.56h-11.04v28.02h11.04v-28.02z" fill="#1F3969" stroke="#1F3969" stroke-width="4" stroke-miterlimit="10" stroke-linecap="round" stroke-linejoin="round"/><path d="M227.34 370.68H113.4c-2.22 0-4.08-1.8-4.08-4.08v-15c0-2.22 1.8-4.08 4.08-4.08h113.94c2.22 0 4.08 1.8 4.08 4.08v15c0 2.28-1.8 4.08-4.08 4.08z" fill="#50B56F"/><path d="M144.18 359.88h-1.56v3.3h-1.02v-7.98h2.58c1.86 0 2.76 1.021 2.76 2.341 0 1.2-.78 2.339-2.76 2.339zm0-.9c1.2 0 1.68-.539 1.68-1.439s-.48-1.5-1.68-1.5h-1.56v2.939h1.56zM149.82 355.2h1.14l1.98 4.021 1.98-4.021h1.14l-2.58 4.98v3h-1.02v-3l-2.64-4.98zM158.94 355.2h5.4v.841h-2.16v7.139h-1.02v-7.139H159v-.841h-.06zM173.04 359.58h-4.08v3.6h-1.02v-7.98h1.02v3.48h4.08v-3.48h1.02v7.98h-1.02v-3.6zM181.74 363.24c-2.22 0-4.02-1.68-4.02-4.08 0-2.4 1.74-4.08 4.02-4.08 2.28 0 4.02 1.68 4.02 4.08-.06 2.4-1.8 4.08-4.02 4.08zm0-.9c1.68 0 2.94-1.2 2.94-3.18 0-1.98-1.26-3.18-2.94-3.18s-2.94 1.2-2.94 3.18c0 1.98 1.26 3.18 2.94 3.18zM195.66 355.2v7.98h-1.02l-4.2-6.359v6.359h-1.02v-7.98h1.02l4.2 6.3v-6.3h1.02z" fill="#fff"/><path d="M227.34 370.68H113.4c-2.22 0-4.08-1.8-4.08-4.08v-15c0-2.22 1.8-4.08 4.08-4.08h113.94c2.22 0 4.08 1.8 4.08 4.08v15c0 2.28-1.8 4.08-4.08 4.08z" stroke="#1F3969" stroke-width="4" stroke-miterlimit="10" stroke-linecap="round" stroke-linejoin="round"/><path opacity=".28" d="M227.34 347.58h-18v9c0 5.64 4.56 10.26 10.26 10.26h11.82v-15.18c0-2.28-1.8-4.08-4.08-4.08z" fill="#1F3969" stroke="#1F3969" stroke-width="4" stroke-miterlimit="10" stroke-linecap="round" stroke-linejoin="round"/><path d="M259.44 375.36h-132c.78 1.92 1.2 4.32 1.2 6.84 0 2.52-.42 4.86-1.2 6.84h131.94c-.78-1.92-1.2-4.32-1.2-6.84.06-2.58.48-4.92 1.26-6.84z" fill="#CECECE"/><path d="M263.04 371.7H123.9v3.6h139.14v-3.6z" fill="#5F5AFF"/><path d="M263.04 371.7H123.9v3.6h139.14v-3.6z" stroke="#1F3969" stroke-width="4" stroke-miterlimit="10" stroke-linecap="round" stroke-linejoin="round"/><path d="M263.04 388.98H123.9v3.6h139.14v-3.6z" fill="#F6F9FD"/><path d="M263.04 388.98H123.9v3.6h139.14v-3.6z" fill="#5F5AFF"/><path d="M263.04 388.98H123.9v3.6h139.14v-3.6z" stroke="#1F3969" stroke-width="4" stroke-miterlimit="10" stroke-linecap="round" stroke-linejoin="round"/><path d="M332.16 379.8l-1.8-20.22h-29.64l-1.8 20.22c-.42 4.68-3.24 9.18-7.68 12.78v.06h48.6v-.06c-4.44-3.6-7.26-8.1-7.68-12.78z" fill="#BFCFE2"/><path opacity=".28" d="M300.72 359.58l-1.08 12.12h31.8l-1.08-12.12h-29.64z" fill="#1F3969" stroke="#1F3969" stroke-width="4" stroke-miterlimit="10" stroke-linecap="round" stroke-linejoin="round"/><path d="M332.16 379.8l-1.8-20.22h-29.64l-1.8 20.22c-.42 4.68-3.24 9.18-7.68 12.78v.06h48.6v-.06c-4.44-3.6-7.26-8.1-7.68-12.78z" stroke="#1F3969" stroke-width="4" stroke-miterlimit="10" stroke-linecap="round" stroke-linejoin="round"/><path d="M410.34 362.58h-189.6c-3.96 0-7.2-3.24-7.2-7.2v-123.6c0-3.96 3.24-7.2 7.2-7.2h189.6c3.96 0 7.2 3.24 7.2 7.2v123.6c0 4.02-3.24 7.2-7.2 7.2z" fill="#fff"/><path d="M410.34 362.58h-189.6c-3.96 0-7.2-3.24-7.2-7.2v-123.6c0-3.96 3.24-7.2 7.2-7.2h189.6c3.96 0 7.2 3.24 7.2 7.2v123.6c0 4.02-3.24 7.2-7.2 7.2z" fill="#BFCFE2"/><path d="M410.34 362.58h-189.6c-3.96 0-7.2-3.24-7.2-7.2v-123.6c0-3.96 3.24-7.2 7.2-7.2h189.6c3.96 0 7.2 3.24 7.2 7.2v123.6c0 4.02-3.24 7.2-7.2 7.2z" stroke="#1F3969" stroke-width="4" stroke-miterlimit="10" stroke-linecap="round" stroke-linejoin="round"/><path d="M407.374 339.557v-104.76h-183.6v104.76h183.6z" fill="#F6F9FD"/><path opacity=".28" d="M230.34 224.58v83.16c0 2.64 2.16 4.8 4.8 4.8H348.6c2.64 0 4.8-2.16 4.8-4.8v-83.16H230.34z" fill="#1F3969" stroke="#1F3969" stroke-width="4" stroke-miterlimit="10" stroke-linecap="round" stroke-linejoin="round"/><path d="M407.374 339.557v-104.76h-183.6v104.76h183.6zM307.5 351h16.14" stroke="#1F3969" stroke-width="4" stroke-miterlimit="10" stroke-linecap="round" stroke-linejoin="round"/><path d="M354 305.94H240.54c-2.64 0-4.8-2.16-4.8-4.8v-88.92c0-2.64 2.16-4.8 4.8-4.8H354c2.64 0 4.8 2.16 4.8 4.8v88.98c0 2.64-2.16 4.74-4.8 4.74z" fill="#2D425E"/><path d="M358.8 219.06H235.74v-6.9c0-2.64 2.16-4.8 4.8-4.8H354c2.64 0 4.8 2.16 4.8 4.8v6.9z" stroke="#1F3969" stroke-width="4" stroke-miterlimit="10" stroke-linecap="round" stroke-linejoin="round"/><path d="M358.8 221.34H235.74v-9.18c0-2.64 2.16-4.8 4.8-4.8H354c2.64 0 4.8 2.16 4.8 4.8v9.18z" fill="#D0DDF0"/><path d="M358.8 221.34H235.74v-9.18c0-2.64 2.16-4.8 4.8-4.8H354c2.64 0 4.8 2.16 4.8 4.8v9.18z" stroke="#1F3969" stroke-width="4" stroke-miterlimit="10" stroke-linecap="round" stroke-linejoin="round"/><path d="M358.8 221.34H235.74v-9.18c0-2.64 2.16-4.8 4.8-4.8H354c2.64 0 4.8 2.16 4.8 4.8v9.18z" stroke="#1F3969" stroke-width="4" stroke-miterlimit="10" stroke-linecap="round" stroke-linejoin="round"/><path d="M354 305.94H240.54c-2.64 0-4.8-2.16-4.8-4.8v-88.92c0-2.64 2.16-4.8 4.8-4.8H354c2.64 0 4.8 2.16 4.8 4.8v88.98c0 2.64-2.16 4.74-4.8 4.74z" stroke="#1F3969" stroke-width="4" stroke-miterlimit="10" stroke-linecap="round" stroke-linejoin="round"/><path opacity=".28" d="M413.22 327.18h-69.6c-2.64 0-4.8-2.16-4.8-4.8v-73.74c0-2.64 2.16-4.8 4.8-4.8h69.6c2.64 0 4.8 2.16 4.8 4.8v73.74c0 2.7-2.16 4.8-4.8 4.8z" fill="#1F3969" stroke="#1F3969" stroke-width="4" stroke-miterlimit="10" stroke-linecap="round" stroke-linejoin="round"/><path d="M418.02 322.98h-69.6c-2.64 0-4.8-2.16-4.8-4.8v-73.74c0-2.64 2.16-4.8 4.8-4.8h69.6c2.64 0 4.8 2.16 4.8 4.8v73.74c0 2.7-2.16 4.8-4.8 4.8z" fill="#2AA1FF"/><path d="M418.02 322.98h-69.6c-2.64 0-4.8-2.16-4.8-4.8v-73.74c0-2.64 2.16-4.8 4.8-4.8h69.6c2.64 0 4.8 2.16 4.8 4.8v73.74c0 2.7-2.16 4.8-4.8 4.8z" stroke="#1F3969" stroke-width="4" stroke-miterlimit="10" stroke-linecap="round" stroke-linejoin="round"/><path opacity=".34" d="M407.64 262.5h-48.96c-1.74 0-3.12-1.38-3.12-3.12v-4.68c0-1.74 1.38-3.12 3.12-3.12h48.96c1.74 0 3.12 1.38 3.12 3.12v4.68c0 1.74-1.38 3.12-3.12 3.12z" stroke="#fff" stroke-width="2" stroke-miterlimit="10" stroke-linecap="round" stroke-linejoin="round"/><g opacity=".34" stroke="#fff" stroke-width="2" stroke-miterlimit="10" stroke-linecap="round" stroke-linejoin="round"><path opacity=".34" d="M386.16 280.08H358.8c-1.74 0-3.12-1.38-3.12-3.12v-4.68c0-1.74 1.38-3.12 3.12-3.12h27.36c1.74 0 3.12 1.38 3.12 3.12v4.68c-.06 1.74-1.44 3.12-3.12 3.12zM407.7 280.08h-10.62c-1.74 0-3.12-1.38-3.12-3.12v-4.68c0-1.74 1.38-3.12 3.12-3.12h10.62c1.74 0 3.12 1.38 3.12 3.12v4.68c0 1.74-1.38 3.12-3.12 3.12z"/></g><path d="M355.62 298.32h55.14M355.62 304.8h55.14M355.62 311.28h33.6" stroke="#fff" stroke-width="2" stroke-miterlimit="10" stroke-linecap="round" stroke-linejoin="round"/><path d="M247.8 216.78a2.4 2.4 0 10-.001-4.801 2.4 2.4 0 00.001 4.801zM256.14 216.78a2.4 2.4 0 10-.001-4.801 2.4 2.4 0 00.001 4.801zM264.48 216.78a2.4 2.4 0 10-.001-4.801 2.4 2.4 0 00.001 4.801z" fill="#1F3969"/><path d="M306.42 232.44h7.8" stroke="#fff" stroke-width="4" stroke-miterlimit="10" stroke-linecap="round" stroke-linejoin="round"/><path d="M266.88 232.44h33.78" stroke="#7BFFA0" stroke-width="4" stroke-miterlimit="10" stroke-linecap="round" stroke-linejoin="round"/><path d="M250.2 232.44h11.88M265.68 291.54h25.8" stroke="#9169FF" stroke-width="4" stroke-miterlimit="10" stroke-linecap="round" stroke-linejoin="round"/><path d="M250.2 291.54h8.34" stroke="#7BFFA0" stroke-width="4" stroke-miterlimit="10" stroke-linecap="round" stroke-linejoin="round"/><path d="M300.66 239.82h4.86" stroke="#fff" stroke-width="4" stroke-miterlimit="10" stroke-linecap="round" stroke-linejoin="round"/><path d="M278.58 239.82h16.32" stroke="#9169FF" stroke-width="4" stroke-miterlimit="10" stroke-linecap="round" stroke-linejoin="round"/><path d="M256.14 239.82h16.62" stroke="#FFC47D" stroke-width="4" stroke-miterlimit="10" stroke-linecap="round" stroke-linejoin="round"/><path d="M281.88 247.2h14.34" stroke="#fff" stroke-width="4" stroke-miterlimit="10" stroke-linecap="round" stroke-linejoin="round"/><path d="M263.88 247.2h13.5" stroke="#FF5757" stroke-width="4" stroke-miterlimit="10" stroke-linecap="round" stroke-linejoin="round"/><path d="M283.8 254.58h2.94" stroke="#fff" stroke-width="4" stroke-miterlimit="10" stroke-linecap="round" stroke-linejoin="round"/><path d="M271.92 254.58h6.66" stroke="#9169FF" stroke-width="4" stroke-miterlimit="10" stroke-linecap="round" stroke-linejoin="round"/><path d="M256.14 254.58h10.74" stroke="#7BFFA0" stroke-width="4" stroke-miterlimit="10" stroke-linecap="round" stroke-linejoin="round"/><path d="M279.18 262.02h19.14" stroke="#FFC47D" stroke-width="4" stroke-miterlimit="10" stroke-linecap="round" stroke-linejoin="round"/><path d="M256.14 262.02h17.16" stroke="#FF5757" stroke-width="4" stroke-miterlimit="10" stroke-linecap="round" stroke-linejoin="round"/><path d="M301.32 269.4h10.38" stroke="#9169FF" stroke-width="4" stroke-miterlimit="10" stroke-linecap="round" stroke-linejoin="round"/><path d="M279.18 269.4h16.62" stroke="#FF5757" stroke-width="4" stroke-miterlimit="10" stroke-linecap="round" stroke-linejoin="round"/><path d="M263.88 269.4h9.42" stroke="#7BFFA0" stroke-width="4" stroke-miterlimit="10" stroke-linecap="round" stroke-linejoin="round"/><path d="M286.74 276.78h9.06" stroke="#fff" stroke-width="4" stroke-miterlimit="10" stroke-linecap="round" stroke-linejoin="round"/><path d="M263.88 276.78h16.62" stroke="#9169FF" stroke-width="4" stroke-miterlimit="10" stroke-linecap="round" stroke-linejoin="round"/><path d="M310.32 284.16h10.38" stroke="#fff" stroke-width="4" stroke-miterlimit="10" stroke-linecap="round" stroke-linejoin="round"/><path d="M278.58 284.16h26.1" stroke="#FFC47D" stroke-width="4" stroke-miterlimit="10" stroke-linecap="round" stroke-linejoin="round"/><path d="M256.14 284.16h16.62" stroke="#fff" stroke-width="4" stroke-miterlimit="10" stroke-linecap="round" stroke-linejoin="round"/><path d="M128.94 379.5h129.3M128.94 384.3h129.3M259.44 375.36h-132c.78 1.92 1.2 4.32 1.2 6.84 0 2.52-.42 4.86-1.2 6.84h131.94c-.78-1.92-1.2-4.32-1.2-6.84.06-2.58.48-4.92 1.26-6.84z" stroke="#1F3969" stroke-width="4" stroke-miterlimit="10" stroke-linecap="round" stroke-linejoin="round"/><path d="M437.009 326.443l-5.839.685 5.079 43.264 5.839-.686-5.079-43.263z" fill="#FFA364"/><path d="M437.017 326.489l-5.84.686.518 4.409 5.84-.686-.518-4.409z" fill="#2AA1FF"/><path d="M437.017 326.489l-5.84.686.518 4.409 5.84-.686-.518-4.409z" stroke="#1F3969" stroke-width="4" stroke-miterlimit="10" stroke-linecap="round" stroke-linejoin="round"/><path d="M437.009 326.443l-5.839.685 5.079 43.264 5.839-.686-5.079-43.263z" stroke="#1F3969" stroke-width="4" stroke-miterlimit="10" stroke-linecap="round" stroke-linejoin="round"/><path d="M453.023 335.305l-5.845-.636-4.709 43.303 5.846.636 4.708-43.303z" fill="#FF5252"/><path d="M453.023 335.305l-5.845-.636-4.709 43.303 5.846.636 4.708-43.303z" stroke="#1F3969" stroke-width="4" stroke-miterlimit="10" stroke-linecap="round" stroke-linejoin="round"/><path d="M453.067 335.315l-5.846-.636-.48 4.414 5.846.636.48-4.414z" fill="#2D425E"/><path d="M453.067 335.315l-5.846-.636-.48 4.414 5.846.636.48-4.414z" stroke="#1F3969" stroke-width="4" stroke-miterlimit="10" stroke-linecap="round" stroke-linejoin="round"/><path d="M456.66 392.76h-23.58l-3.84-36.12h31.26l-3.84 36.12z" fill="#6567C3"/><path d="M429.24 356.64l.06.66h23.82l-3.78 35.46h7.32l3.84-36.12h-31.26z" fill="#6567C3"/><path d="M456.66 392.76h-23.58l-3.84-36.12h31.26l-3.84 36.12z" stroke="#1F3969" stroke-width="4" stroke-miterlimit="10" stroke-linecap="round" stroke-linejoin="round"/></svg>