<svg xmlns="http://www.w3.org/2000/svg" viewBox="0 0 448.258 448.258"><g fill="#face59"><path d="M320.264 231.985c30.84 0 55.848-25.008 55.848-55.848 0-30.848-25.008-55.848-55.848-55.848s-55.848 25-55.848 55.848c0 30.84 25 55.848 55.848 55.848zM224.264 90.585c23.44 0 42.448-19 42.448-42.448s-19-42.448-42.448-42.448-42.448 19.008-42.448 42.448 19 42.448 42.448 42.448z"/></g><path d="M320.264 128.137c26.464 0 48 21.536 48 48s-21.536 48-48 48-48-21.536-48-48 21.528-48 48-48m0-16c-35.344 0-64 28.656-64 64s28.656 64 64 64 64-28.656 64-64-28.656-64-64-64zM224.264 16.137c17.648 0 32 14.352 32 32s-14.352 32-32 32-32-14.352-32-32 14.352-32 32-32m0-16c-26.512 0-48 21.488-48 48s21.488 48 48 48 48-21.488 48-48-21.488-48-48-48z"/><path d="M11.352 352.169l80.424-79.168c15.464-15.848 37.552-24.864 60.704-24.864 13.936 0 27.656 3.232 39.672 9.36 11.072 5.92 24.824 6.752 38 6.752l14.592-.128h22.032c10.184 0 29.472 5.016 29.472 24.016 0 16.544-17.232 24-29.472 24h-64.112l.664 32 98.336-.016 100.688-81.8c4.144-2.264 12.08-5.84 20.496-5.84 5.544 0 10.472 1.512 15.048 4.64 1.888 1.264 2.28 3.184 2.344 4.216.128 1.952-.624 3.816-2.064 5.096l-110 123.376c-10.328 9.16-23.968 14.344-38.16 14.344H123.712l-28.96 27.408-83.4-83.392z" fill="#f8dfd2"/><path d="M152.48 256.137c12.672 0 25.136 2.936 35.752 8.336 12.76 6.832 27.68 7.776 41.896 7.776 0 0 6.128-.12 36.64-.12.216 0 21.472.184 21.472 16.008 0 10.92-12.816 16.008-21.472 16.008H214.92c-11.136-.008-22.92 8.08-22.92 25.064 0 12.64 10.224 22.928 22.936 22.928l89.568-.016s94.24-78.56 101.84-82.728 16.864-6.912 24.712-3.048l-108.544 121.76a49.85 49.85 0 01-32.48 12.032l-169.776.008L96 425.497l-73.28-73.28 74.904-73.744c13.84-14.192 33.84-22.336 54.856-22.336m0-16c-26.44 0-50.104 10.544-66.32 27.16L0 352.121l96 96 32-32h162.032a65.867 65.867 0 0043.752-16.624l109.712-123.08c6.704-5.952 6.32-16.896-1.096-21.928-13.992-9.496-30.496-6.8-45.104 1.632s-98.488 80-98.488 80l-82.544.016c-3.832 0-8-4.184-8-8 0-4.496 3.92-8 8-8h50.512c17.68 0 37.472-11.512 37.472-32.008 0-21.76-19.8-32.008-37.472-32.008-30.672 0-36.64.12-36.64.12-12.288 0-24.744-.736-34.344-5.88-12.816-6.512-27.568-10.224-43.312-10.224z"/></svg>