<?xml version="1.0" encoding="iso-8859-1"?>
<!-- Generator: Adobe Illustrator 19.0.0, SVG Export Plug-In . SVG Version: 6.00 Build 0)  -->
<svg version="1.1" id="Capa_1" xmlns="http://www.w3.org/2000/svg" xmlns:xlink="http://www.w3.org/1999/xlink" x="0px" y="0px"
	 viewBox="0 0 448.258 448.258" style="enable-background:new 0 0 448.258 448.258;" xml:space="preserve">
<g>
	<path style="fill:#FACE59;" d="M320.264,231.985c30.84,0,55.848-25.008,55.848-55.848c0-30.848-25.008-55.848-55.848-55.848
		s-55.848,25-55.848,55.848C264.416,206.977,289.416,231.985,320.264,231.985z"/>
	<path style="fill:#FACE59;" d="M224.264,90.585c23.44,0,42.448-19,42.448-42.448s-19-42.448-42.448-42.448
		s-42.448,19.008-42.448,42.448S200.816,90.585,224.264,90.585z"/>
</g>
<path d="M320.264,128.137c26.464,0,48,21.536,48,48s-21.536,48-48,48s-48-21.536-48-48S293.792,128.137,320.264,128.137
	 M320.264,112.137c-35.344,0-64,28.656-64,64s28.656,64,64,64s64-28.656,64-64S355.608,112.137,320.264,112.137z"/>
<path d="M224.264,16.137c17.648,0,32,14.352,32,32s-14.352,32-32,32s-32-14.352-32-32S206.616,16.137,224.264,16.137 M224.264,0.137
	c-26.512,0-48,21.488-48,48s21.488,48,48,48s48-21.488,48-48S250.776,0.137,224.264,0.137z"/>
<path style="fill:#F8DFD2;" d="M11.352,352.169l80.424-79.168c15.464-15.848,37.552-24.864,60.704-24.864
	c13.936,0,27.656,3.232,39.672,9.36c11.072,5.92,24.824,6.752,38,6.752l14.592-0.128h22.032c10.184,0,29.472,5.016,29.472,24.016
	c0,16.544-17.232,24-29.472,24h-64.112l0.664,32l98.336-0.016l100.688-81.8c4.144-2.264,12.08-5.84,20.496-5.84
	c5.544,0,10.472,1.512,15.048,4.64c1.888,1.264,2.28,3.184,2.344,4.216c0.128,1.952-0.624,3.816-2.064,5.096l-110,123.376
	c-10.328,9.16-23.968,14.344-38.16,14.344H123.712l-28.96,27.408L11.352,352.169z"/>
<path d="M152.48,256.137c12.672,0,25.136,2.936,35.752,8.336c12.76,6.832,27.68,7.776,41.896,7.776c0,0,6.128-0.12,36.64-0.12
	c0.216,0,21.472,0.184,21.472,16.008c0,10.92-12.816,16.008-21.472,16.008H214.92c-11.136-0.008-22.92,8.08-22.92,25.064
	c0,12.64,10.224,22.928,22.936,22.928l89.568-0.016c0,0,94.24-78.56,101.84-82.728s16.864-6.912,24.712-3.048l-108.544,121.76
	c-9.048,7.76-20.544,12.032-32.48,12.032l-169.776,0.008L96,425.497l-73.28-73.28l74.904-73.744
	C111.464,264.281,131.464,256.137,152.48,256.137 M152.48,240.137c-26.44,0-50.104,10.544-66.32,27.16L0,352.121l96,96l32-32
	h162.032c16.128,0,31.696-5.912,43.752-16.624l109.712-123.08c6.704-5.952,6.32-16.896-1.096-21.928
	c-13.992-9.496-30.496-6.8-45.104,1.632c-14.608,8.432-98.488,80-98.488,80l-82.544,0.016c-3.832,0-8-4.184-8-8c0-4.496,3.92-8,8-8
	h50.512c17.68,0,37.472-11.512,37.472-32.008c0-21.76-19.8-32.008-37.472-32.008c-30.672,0-36.64,0.12-36.64,0.12
	c-12.288,0-24.744-0.736-34.344-5.88C182.976,243.849,168.224,240.137,152.48,240.137z"/>
<g>
</g>
<g>
</g>
<g>
</g>
<g>
</g>
<g>
</g>
<g>
</g>
<g>
</g>
<g>
</g>
<g>
</g>
<g>
</g>
<g>
</g>
<g>
</g>
<g>
</g>
<g>
</g>
<g>
</g>
</svg>
