<svg viewBox="0 0 512 512" xmlns="http://www.w3.org/2000/svg"><path d="M376.471 504.5H59.874c-10.14 0-18.359-8.22-18.359-18.359V66.75c0-10.14 8.22-18.359 18.359-18.359h316.597c10.14 0 18.359 8.22 18.359 18.359v419.391c.001 10.139-8.219 18.359-18.359 18.359z" fill="#ffc250"/><path d="M376.471 48.39h-61.445c10.14 0 18.359 8.22 18.359 18.359V486.14c0 10.14-8.22 18.359-18.359 18.359h61.445c10.14 0 18.359-8.22 18.359-18.359V66.75c.001-10.14-8.219-18.36-18.359-18.36z" fill="#eab14d"/><path d="M71.522 467.93V84.96a6.562 6.562 0 016.562-6.562H358.26a6.562 6.562 0 016.562 6.562v382.97a6.562 6.562 0 01-6.562 6.562H78.085a6.562 6.562 0 01-6.563-6.562z" fill="#f5f5f5"/><path d="M358.261 78.398h-61.445a6.562 6.562 0 016.562 6.562v382.97a6.562 6.562 0 01-6.562 6.562h61.445a6.562 6.562 0 006.562-6.562V84.96a6.562 6.562 0 00-6.562-6.562z" fill="#eaeaea"/><path d="M257.175 30.348v-9.665c0-7.281-5.902-13.183-13.183-13.183h-51.638c-7.281 0-13.183 5.902-13.183 13.183v9.665a5.391 5.391 0 01-5.391 5.391h-21.491c-7.149 0-12.945 5.796-12.945 12.945v29.713h157.66V48.685c0-7.149-5.796-12.945-12.945-12.945h-21.491a5.392 5.392 0 01-5.393-5.392z" fill="#c2d0da"/><g><g fill="#66b49d"><path d="M109.694 184.936v-57.794c0-6.403 5.191-11.594 11.594-11.594h57.794c6.403 0 11.594 5.191 11.594 11.594v57.794c0 6.403-5.191 11.594-11.594 11.594h-57.794c-6.404 0-11.594-5.19-11.594-11.594zM109.694 305.343v-57.794c0-6.403 5.191-11.594 11.594-11.594h57.794c6.403 0 11.594 5.191 11.594 11.594v57.794c0 6.403-5.191 11.594-11.594 11.594h-57.794c-6.404 0-11.594-5.191-11.594-11.594zM109.694 425.748v-57.794c0-6.403 5.191-11.594 11.594-11.594h57.794c6.403 0 11.594 5.191 11.594 11.594v57.794c0 6.403-5.191 11.594-11.594 11.594h-57.794c-6.404 0-11.594-5.191-11.594-11.594z"/></g></g><g><path d="M441.317 203.308l-7.364-9.701-27.554-17.448-10.591-1.669-141.087 222.945a58.075 58.075 0 00-7.393 17.46 45.446 45.446 0 0140.278 25.506 58.06 58.06 0 0012.623-14.148z" fill="#fc8086"/><path d="M461.235 134.654l-11.906-7.539c-9.281-5.877-21.57-3.116-27.444 6.167l-10.918 17.253 3.483 7.021 33.13 20.98 8.896.818L467.4 162.09c5.872-9.279 3.113-21.561-6.165-27.436z" fill="#8c9ba6"/><path d="M395.825 174.425l15.167-23.954 45.517 28.818-15.167 23.955z" fill="#c9e2e7"/><path d="M287.607 440.401l-40.173 32.373c-5.667 4.567-13.9-.647-12.195-7.722l12.089-50.157a45.446 45.446 0 0140.279 25.506z" fill="#7c8b96"/></g><g><path d="M170.652 136.8a7.5 7.5 0 00-10.488 1.594l-14.845 20.169-5.076-6.972a7.502 7.502 0 00-12.129 8.832l8.757 12.026a10.465 10.465 0 008.402 4.289h.026a10.46 10.46 0 008.397-4.245l18.552-25.204a7.505 7.505 0 00-1.596-10.489zM170.652 259.827a7.5 7.5 0 00-10.488 1.594l-14.845 20.168-5.076-6.971a7.503 7.503 0 00-12.13 8.83l8.757 12.028a10.461 10.461 0 008.401 4.288l.026.001c3.302 0 6.44-1.586 8.398-4.246l18.552-25.203a7.504 7.504 0 00-1.595-10.489zM170.652 377.611a7.5 7.5 0 00-10.488 1.594l-14.845 20.168-5.076-6.971a7.502 7.502 0 10-12.13 8.83l8.757 12.028a10.461 10.461 0 008.401 4.288l.026.001c3.302 0 6.44-1.586 8.398-4.246l18.552-25.203a7.504 7.504 0 00-1.595-10.489zM228.027 147.871h92.716c4.143 0 7.502-3.358 7.502-7.502s-3.359-7.502-7.502-7.502h-92.716c-4.143 0-7.502 3.358-7.502 7.502s3.359 7.502 7.502 7.502zM228.027 179.212h46.358c4.143 0 7.502-3.358 7.502-7.502s-3.359-7.502-7.502-7.502h-46.358c-4.143 0-7.502 3.358-7.502 7.502s3.359 7.502 7.502 7.502zM228.027 268.276h62.208c4.143 0 7.502-3.358 7.502-7.502s-3.359-7.502-7.502-7.502h-62.208c-4.143 0-7.502 3.358-7.502 7.502s3.359 7.502 7.502 7.502zM274.385 299.618c4.143 0 7.502-3.358 7.502-7.502s-3.359-7.502-7.502-7.502h-46.358c-4.143 0-7.502 3.358-7.502 7.502s3.359 7.502 7.502 7.502z"/><path d="M179.087 108.047h-57.794c-10.529 0-19.096 8.567-19.096 19.096v57.794c0 10.529 8.567 19.096 19.096 19.096h57.794c10.529 0 19.096-8.567 19.096-19.096v-57.794c0-10.529-8.566-19.096-19.096-19.096zm4.093 76.89a4.097 4.097 0 01-4.092 4.092h-57.794a4.096 4.096 0 01-4.092-4.092v-57.794a4.097 4.097 0 014.092-4.092h57.794a4.096 4.096 0 014.092 4.092zM179.087 228.453h-57.794c-10.529 0-19.096 8.567-19.096 19.096v57.794c0 10.529 8.567 19.096 19.096 19.096h57.794c10.529 0 19.096-8.567 19.096-19.096v-57.794c0-10.53-8.566-19.096-19.096-19.096zm4.093 76.89a4.097 4.097 0 01-4.092 4.092h-57.794a4.096 4.096 0 01-4.092-4.092v-57.794a4.097 4.097 0 014.092-4.092h57.794a4.096 4.096 0 014.092 4.092zM179.087 348.857h-57.794c-10.529 0-19.096 8.567-19.096 19.096v57.794c0 10.529 8.567 19.096 19.096 19.096h57.794c10.529 0 19.096-8.567 19.096-19.096v-57.794c0-10.529-8.566-19.096-19.096-19.096zm4.093 76.89a4.097 4.097 0 01-4.092 4.092h-57.794a4.096 4.096 0 01-4.092-4.092v-57.794a4.097 4.097 0 014.092-4.092h57.794a4.096 4.096 0 014.092 4.092z"/><path d="M465.253 128.318l-11.906-7.54c-6.182-3.916-13.52-5.187-20.658-3.584-7.139 1.605-13.226 5.894-17.139 12.077l-10.918 17.252-15.16 23.955-17.144 27.091V84.961c0-7.755-6.309-14.064-14.064-14.064h-53.756V55.894h71.966c5.987 0 10.858 4.87 10.858 10.857v64.968c0 4.144 3.359 7.502 7.502 7.502s7.502-3.358 7.502-7.502V66.751c0-14.259-11.601-25.861-25.861-25.861h-73.518c-3.072-7.417-10.381-12.651-18.895-12.651h-19.38v-7.555C264.682 9.28 255.403 0 243.997 0h-51.638c-11.406 0-20.685 9.28-20.685 20.685v7.555h-19.38c-8.514 0-15.823 5.234-18.894 12.651H59.881c-14.26 0-25.861 11.601-25.861 25.861V486.14c0 14.259 11.601 25.861 25.861 25.861h316.595c14.26 0 25.861-11.602 25.861-25.861V317.932c0-4.144-3.359-7.502-7.502-7.502s-7.502 3.358-7.502 7.502v168.207c0 5.987-4.871 10.857-10.858 10.857H59.881c-5.987 0-10.858-4.87-10.858-10.857V66.751c0-5.987 4.871-10.857 10.858-10.857h71.966v15.004H78.091c-7.755 0-14.064 6.309-14.064 14.064v382.967c0 7.755 6.309 14.064 14.064 14.064h280.174c7.755 0 14.064-6.309 14.064-14.064V326.357L447.66 207.32l.004-.007 15.155-23.947 10.925-17.263c8.073-12.759 4.264-29.709-8.491-37.785zm-29.274 3.515a12.287 12.287 0 019.341 1.62l11.906 7.541c5.768 3.652 7.49 11.316 3.839 17.085l-6.912 10.922-32.832-20.791 6.908-10.915a12.297 12.297 0 017.75-5.462zM293.897 422.239a50.491 50.491 0 01-4.751 6.335 52.737 52.737 0 00-7.974-8.537l139.787-220.744 10.013 6.341zM242.67 466.98c-.052-.018-.117-.053-.142-.053-.005 0-.008.001-.01.005l10.598-44.015a37.766 37.766 0 0124.769 15.685c-39.722 32.008-34.651 27.865-35.215 28.378zm170.628-306.092l32.832 20.791-7.136 11.276-32.832-20.791zM146.85 48.854c.005-.092.011-.184.013-.277.001-.032-.003-.063-.002-.095.108-2.906 2.5-5.24 5.433-5.24h21.491c7.109 0 12.893-5.784 12.893-12.893v-9.665a5.688 5.688 0 015.682-5.681h51.638a5.688 5.688 0 015.682 5.681v9.665c0 7.109 5.784 12.893 12.893 12.893h21.491c2.933 0 5.325 2.333 5.433 5.24 0 .032-.003.063-.002.095.002.091.008.183.013.275v22.045H146.85zM79.03 85.901h278.295v135.377L278.809 345.35a7.502 7.502 0 002.327 10.351c3.486 2.205 8.126 1.189 10.351-2.328l106.651-168.531 10.144 6.423L268.495 412.01a52.679 52.679 0 00-11.126-3.558 50.73 50.73 0 013.696-7.006l11.662-18.427a7.502 7.502 0 10-12.678-8.023l-11.661 18.426a65.448 65.448 0 00-8.348 19.716l-.001.005-12.088 50.151a15.573 15.573 0 00-.435 3.696H79.03zm278.295 381.088h-90.753l25.747-20.747a65.426 65.426 0 0014.254-15.978l50.752-80.198z"/></g></svg>
