<?xml version="1.0" encoding="iso-8859-1"?>
<!-- Generator: Adobe Illustrator 19.0.0, SVG Export Plug-In . SVG Version: 6.00 Build 0)  -->
<svg version="1.1" id="Capa_1" xmlns="http://www.w3.org/2000/svg" xmlns:xlink="http://www.w3.org/1999/xlink" x="0px" y="0px"
	 viewBox="0 0 511.999 511.999" style="enable-background:new 0 0 511.999 511.999;" xml:space="preserve">
<path style="fill:#ABDFEB;" d="M316.848,141.705c-2.55-2.387-4.313-5.483-5.013-8.905c-8.144-39.784-43.34-69.712-85.532-69.712
	c-12.305,0-24.013,2.548-34.63,7.141c-3.361,1.454-7.218,1.215-10.299-0.764C171.276,62.98,159.27,59.21,146.378,59.21
	c-32.504,0-59.419,23.897-64.151,55.08c-0.596,3.928-3.71,6.969-7.656,7.432C36.805,126.154,7.5,158.244,7.5,197.2l0,0
	c0,8.887,7.204,16.091,16.091,16.091h301.246c8.887,0,16.091-7.204,16.091-16.091l0,0
	C340.928,175.302,331.664,155.576,316.848,141.705z"/>
<path style="opacity:0.1;enable-background:new    ;" d="M55.356,213.291h269.481c8.887,0,16.091-7.204,16.091-16.091l0,0
	c0-4.516-0.415-8.932-1.17-13.231c-30.892-39.473-78.974-64.845-132.984-64.845C140.349,119.123,82.897,157.502,55.356,213.291z"/>
<path style="fill:#ABDFEB;" d="M483.663,346.902c-2.207-2.066-3.732-4.745-4.338-7.706c-7.047-34.426-37.503-60.323-74.012-60.323
	c-10.647,0-20.779,2.205-29.966,6.18c-2.908,1.258-6.246,1.051-8.912-0.661c-8.738-5.612-19.127-8.873-30.283-8.873
	c-28.126,0-51.416,20.679-55.511,47.661c-0.516,3.399-3.21,6.031-6.625,6.431c-32.678,3.835-58.036,31.603-58.036,65.312l0,0
	c0,7.69,6.234,13.924,13.924,13.924h260.672c7.69,0,13.924-6.234,13.924-13.924l0,0C504.5,375.974,496.483,358.905,483.663,346.902z
	"/>
<path style="opacity:0.1;enable-background:new    ;" d="M417.291,314.221c0-11.956-1.252-23.618-3.616-34.871
	c-2.747-0.303-5.534-0.476-8.362-0.476c-10.647,0-20.779,2.205-29.966,6.179c-2.908,1.258-6.246,1.051-8.912-0.661
	c-8.738-5.612-19.127-8.874-30.283-8.874c-28.126,0-51.416,20.679-55.511,47.662c-0.516,3.399-3.21,6.03-6.625,6.431
	c-32.678,3.835-58.036,31.603-58.036,65.312l0,0c0,7.69,6.234,13.924,13.924,13.924h158.38
	C406.592,381.858,417.291,349.289,417.291,314.221z"/>
<circle style="fill:#EBECEC;" cx="251.48" cy="284.009" r="168.77"/>
<path style="opacity:0.1;enable-background:new    ;" d="M155.322,307.56c-26.357,0-49.432,14.044-62.156,35.056
	c17.059,46.068,53.647,82.656,99.715,99.715c21.012-12.724,35.056-35.799,35.056-62.156
	C227.936,340.07,195.426,307.56,155.322,307.56z"/>
<path style="opacity:0.1;enable-background:new    ;" d="M406.347,216.844c-8.999-20.718-22.025-39.28-38.103-54.689
	c-0.18-0.002-0.358-0.014-0.539-0.014c-22.642,0-40.997,18.355-40.997,40.998c0,22.642,18.355,40.997,40.997,40.997
	C385.539,244.136,400.707,232.745,406.347,216.844z"/>
<circle style="opacity:0.1;enable-background:new    ;" cx="360.28" cy="314.219" r="33.574"/>
<circle style="opacity:0.1;enable-background:new    ;" cx="181.14" cy="179.909" r="20.499"/>
<circle style="opacity:0.1;enable-background:new    ;" cx="297.9" cy="373.289" r="20.499"/>
<g>
	<ellipse style="fill:#F27281;" cx="188.44" cy="266.879" rx="23.262" ry="18.524"/>
	<ellipse style="fill:#F27281;" cx="314.52" cy="266.879" rx="23.262" ry="18.524"/>
</g>
<path style="opacity:0.05;enable-background:new    ;" d="M351.369,420.056c-212.355-6.057-212.974-250.04-131.28-301.889
	C141.881,132.88,82.707,201.532,82.707,284.014c0,93.211,75.563,168.774,168.774,168.774
	C288.863,452.788,323.4,440.627,351.369,420.056z"/>
<path d="M194.495,240.188v8.215c0,4.143,3.357,7.5,7.5,7.5s7.5-3.357,7.5-7.5v-8.215c0-4.143-3.357-7.5-7.5-7.5
	C197.852,232.688,194.495,236.046,194.495,240.188z M488.788,341.425c-1.093-1.023-1.824-2.314-2.115-3.732
	c-6.3-30.776-29.225-55.056-59.183-63.304c-3.798-70.228-48.888-129.658-111.363-154.371c-6.039-17.806-17.492-33.74-32.543-45.171
	c-16.59-12.6-36.398-19.259-57.281-19.259c-13.058,0-25.711,2.61-37.608,7.758c-1.112,0.481-2.334,0.409-3.269-0.191
	c-11.658-7.486-25.161-11.443-39.05-11.443c-19.758,0-38.215,7.813-51.971,22.001c-2.883,2.974-2.81,7.722,0.164,10.605
	c2.975,2.883,7.723,2.81,10.605-0.164c10.905-11.248,25.538-17.442,41.201-17.442c11.01,0,21.71,3.135,30.943,9.063
	c5.146,3.307,11.625,3.807,17.331,1.339c10.007-4.33,20.656-6.525,31.652-6.525c30.026,0,57.362,17.174,70.885,43.175
	c-14.583-3.919-29.903-6.021-45.707-6.021c-69.119,0-129.063,39.994-157.935,98.051H23.591c-4.737,0-8.591-3.854-8.591-8.591
	c0-34.738,25.985-63.985,60.443-68.029c7.26-0.852,13.098-6.509,14.196-13.753c0.357-2.354,0.866-4.704,1.512-6.984
	c1.128-3.985-1.189-8.131-5.175-9.259c-3.987-1.128-8.131,1.189-9.259,5.175c-0.814,2.879-1.456,5.844-1.908,8.815
	c-0.091,0.595-0.538,1.04-1.114,1.107C31.682,119.204,0,154.855,0,197.2c0,13.008,10.583,23.591,23.591,23.591h63.35
	c-7.571,19.636-11.733,40.951-11.733,63.224c0,97.197,79.076,176.273,176.274,176.273c26.603,0,52.17-5.779,75.992-17.178
	c3.736-1.788,5.316-6.267,3.528-10.003c-1.787-3.737-6.265-5.313-10.003-3.528c-21.785,10.424-45.174,15.709-69.518,15.709
	c-88.927,0-161.274-72.347-161.274-161.273c0-88.927,72.348-161.274,161.274-161.274c87.704,0,159.276,70.373,161.228,157.616
	c0,0.035,0.001,0.07,0.001,0.105c0.026,1.182,0.045,2.366,0.045,3.554c0,50.35-22.884,96.9-62.784,127.717
	c-3.278,2.531-3.884,7.241-1.352,10.52c2.532,3.281,7.244,3.883,10.52,1.351c3.023-2.335,5.947-4.76,8.789-7.256h122.647
	c11.813,0,21.424-9.61,21.424-21.424C512,374.735,503.54,355.237,488.788,341.425z M490.576,401.347H383.077
	c27.349-30.527,43.152-69.516,44.564-111.208c22.494,7.762,39.471,26.793,44.336,50.563c0.918,4.48,3.187,8.519,6.56,11.675
	C490.443,363.523,497,378.633,497,394.923C497,398.465,494.118,401.347,490.576,401.347z M293.468,240.188v8.215
	c0,4.143,3.357,7.5,7.5,7.5s7.5-3.357,7.5-7.5v-8.215c0-4.143-3.357-7.5-7.5-7.5S293.468,236.046,293.468,240.188z M258.875,243.839
	c-1.868,2.144-4.563,3.372-7.394,3.372s-5.525-1.229-7.393-3.372c-2.723-3.122-7.458-3.448-10.582-0.725
	c-3.122,2.722-3.446,7.459-0.725,10.582c4.717,5.411,11.533,8.515,18.7,8.515s13.983-3.104,18.7-8.515
	c2.722-3.123,2.397-7.86-0.725-10.582C266.333,240.392,261.596,240.715,258.875,243.839z"/>
<g>
</g>
<g>
</g>
<g>
</g>
<g>
</g>
<g>
</g>
<g>
</g>
<g>
</g>
<g>
</g>
<g>
</g>
<g>
</g>
<g>
</g>
<g>
</g>
<g>
</g>
<g>
</g>
<g>
</g>
</svg>
