<svg xmlns="http://www.w3.org/2000/svg" viewBox="0 0 511.999 511.999"><path d="M316.848 141.705c-2.55-2.387-4.313-5.483-5.013-8.905-8.144-39.784-43.34-69.712-85.532-69.712-12.305 0-24.013 2.548-34.63 7.141-3.361 1.454-7.218 1.215-10.299-.764a64.542 64.542 0 00-34.996-10.255c-32.504 0-59.419 23.897-64.151 55.08-.596 3.928-3.71 6.969-7.656 7.432C36.805 126.154 7.5 158.244 7.5 197.2c0 8.887 7.204 16.091 16.091 16.091h301.246c8.887 0 16.091-7.204 16.091-16.091 0-21.898-9.264-41.624-24.08-55.495z" fill="#abdfeb"/><path d="M55.356 213.291h269.481c8.887 0 16.091-7.204 16.091-16.091 0-4.516-.415-8.932-1.17-13.231-30.892-39.473-78.974-64.845-132.984-64.845-66.425-.001-123.877 38.378-151.418 94.167z" opacity=".1"/><path d="M483.663 346.902a14.556 14.556 0 01-4.338-7.706c-7.047-34.426-37.503-60.323-74.012-60.323-10.647 0-20.779 2.205-29.966 6.18-2.908 1.258-6.246 1.051-8.912-.661a55.845 55.845 0 00-30.283-8.873c-28.126 0-51.416 20.679-55.511 47.661-.516 3.399-3.21 6.031-6.625 6.431-32.678 3.835-58.036 31.603-58.036 65.312 0 7.69 6.234 13.924 13.924 13.924h260.672c7.69 0 13.924-6.234 13.924-13.924 0-18.949-8.017-36.018-20.837-48.021z" fill="#abdfeb"/><path d="M417.291 314.221c0-11.956-1.252-23.618-3.616-34.871a76.194 76.194 0 00-8.362-.476c-10.647 0-20.779 2.205-29.966 6.179-2.908 1.258-6.246 1.051-8.912-.661a55.846 55.846 0 00-30.283-8.874c-28.126 0-51.416 20.679-55.511 47.662a7.596 7.596 0 01-6.625 6.431c-32.678 3.835-58.036 31.603-58.036 65.312 0 7.69 6.234 13.924 13.924 13.924h158.38c18.308-26.989 29.007-59.558 29.007-94.626z" opacity=".1"/><circle cx="251.48" cy="284.009" r="168.77" fill="#ebecec"/><path d="M155.322 307.56c-26.357 0-49.432 14.044-62.156 35.056 17.059 46.068 53.647 82.656 99.715 99.715 21.012-12.724 35.056-35.799 35.056-62.156-.001-40.105-32.511-72.615-72.615-72.615zM406.347 216.844a169.12 169.12 0 00-38.103-54.689c-.18-.002-.358-.014-.539-.014-22.642 0-40.997 18.355-40.997 40.998 0 22.642 18.355 40.997 40.997 40.997 17.834 0 33.002-11.391 38.642-27.292z" opacity=".1"/><circle cx="360.28" cy="314.219" r="33.574" opacity=".1"/><circle cx="181.14" cy="179.909" r="20.499" opacity=".1"/><circle cx="297.9" cy="373.289" r="20.499" opacity=".1"/><g fill="#f27281"><ellipse cx="188.44" cy="266.879" rx="23.262" ry="18.524"/><ellipse cx="314.52" cy="266.879" rx="23.262" ry="18.524"/></g><path d="M351.369 420.056c-212.355-6.057-212.974-250.04-131.28-301.889-78.208 14.713-137.382 83.365-137.382 165.847 0 93.211 75.563 168.774 168.774 168.774 37.382 0 71.919-12.161 99.888-32.732z" opacity=".05"/><path d="M194.495 240.188v8.215c0 4.143 3.357 7.5 7.5 7.5s7.5-3.357 7.5-7.5v-8.215c0-4.143-3.357-7.5-7.5-7.5a7.5 7.5 0 00-7.5 7.5zm294.293 101.237a7.04 7.04 0 01-2.115-3.732 82.757 82.757 0 00-59.183-63.304c-3.798-70.228-48.888-129.658-111.363-154.371-6.039-17.806-17.492-33.74-32.543-45.171-16.59-12.6-36.398-19.259-57.281-19.259-13.058 0-25.711 2.61-37.608 7.758-1.112.481-2.334.409-3.269-.191a72.125 72.125 0 00-39.05-11.443c-19.758 0-38.215 7.813-51.971 22.001a7.5 7.5 0 1010.769 10.441c10.905-11.248 25.538-17.442 41.201-17.442 11.01 0 21.71 3.135 30.943 9.063 5.146 3.307 11.625 3.807 17.331 1.339 10.007-4.33 20.656-6.525 31.652-6.525 30.026 0 57.362 17.174 70.885 43.175a175.885 175.885 0 00-45.707-6.021c-69.119 0-129.063 39.994-157.935 98.051H23.591c-4.737 0-8.591-3.854-8.591-8.591 0-34.738 25.985-63.985 60.443-68.029 7.26-.852 13.098-6.509 14.196-13.753a57.15 57.15 0 011.512-6.984 7.5 7.5 0 00-14.434-4.084 72.712 72.712 0 00-1.908 8.815c-.091.595-.538 1.04-1.114 1.107C31.682 119.204 0 154.855 0 197.2c0 13.008 10.583 23.591 23.591 23.591h63.35c-7.571 19.636-11.733 40.951-11.733 63.224 0 97.197 79.076 176.273 176.274 176.273 26.603 0 52.17-5.779 75.992-17.178a7.5 7.5 0 00-6.475-13.531c-21.785 10.424-45.174 15.709-69.518 15.709-88.927 0-161.274-72.347-161.274-161.273 0-88.927 72.348-161.274 161.274-161.274 87.704 0 159.276 70.373 161.228 157.616l.001.105c.026 1.182.045 2.366.045 3.554 0 50.35-22.884 96.9-62.784 127.717a7.5 7.5 0 00-1.352 10.52 7.497 7.497 0 0010.52 1.351 180.915 180.915 0 008.789-7.256h122.647c11.813 0 21.424-9.61 21.424-21.424.001-20.189-8.459-39.687-23.211-53.499zm1.788 59.922H383.077c27.349-30.527 43.152-69.516 44.564-111.208a67.777 67.777 0 0144.336 50.563c.918 4.48 3.187 8.519 6.56 11.675C490.443 363.523 497 378.633 497 394.923a6.432 6.432 0 01-6.424 6.424zM293.468 240.188v8.215c0 4.143 3.357 7.5 7.5 7.5s7.5-3.357 7.5-7.5v-8.215c0-4.143-3.357-7.5-7.5-7.5s-7.5 3.358-7.5 7.5zm-34.593 3.651c-1.868 2.144-4.563 3.372-7.394 3.372s-5.525-1.229-7.393-3.372a7.5 7.5 0 10-11.307 9.857c4.717 5.411 11.533 8.515 18.7 8.515s13.983-3.104 18.7-8.515a7.5 7.5 0 00-11.306-9.857z"/></svg>
