<svg height="512pt" viewBox="0 0 512 512" width="512pt" xmlns="http://www.w3.org/2000/svg"><path d="M504.5 256c0 137.242-111.258 248.5-248.5 248.5S7.5 393.242 7.5 256 118.758 7.5 256 7.5 504.5 118.758 504.5 256zm0 0" fill="#fff1b8"/><path d="M256 504.5c111.152 0 205.258-72.965 237.02-173.621C473.82 217.324 375.016 130.813 256 130.813c-119.02 0-217.82 86.511-237.02 200.066C50.742 431.539 144.848 504.5 256 504.5zm0 0" fill="#ffe888"/><path d="M256 357.094c-67.676 0-127.195 34.965-161.484 87.797C137.946 482.059 194.356 504.5 256 504.5s118.05-22.441 161.48-59.605c-34.289-52.832-93.8-87.801-161.48-87.801zm0 0" fill="#8ed7e8"/><path d="M288.254 445.613c27.652-18.14 37.21-48.02 37.21-48.02V370.02c-21.546-8.348-44.964-12.926-69.464-12.926-67.68 0-127.195 34.965-161.484 87.797C137.946 482.059 194.356 504.5 256 504.5c6.43 0 12.809-.246 19.113-.723-11.687-18.73-6.91-45.011 13.14-58.164zm0 0" fill="#7ac1dd"/><path d="M256 417.563c-72.398 0-131.633-59.239-131.633-131.633v-76.512c0-72.398 59.235-131.633 131.633-131.633s131.633 59.235 131.633 131.633v76.512c0 72.394-59.235 131.632-131.633 131.632zm0 0" fill="#abebf4"/><path d="M256 77.785c-72.398 0-131.633 59.235-131.633 131.633v76.512c0 71.406 57.63 130.004 128.672 131.597-34.984-31.363-47.11-84.382-50.375-130.535-2.988-42.262 11.625-83.613 39.57-115.457 25.008-28.492 36.961-69.98 41.66-90.758A130.906 130.906 0 00256 77.785zm0 0" fill="#8ed7e8"/><path d="M425.02 63.723c-3.11-2.735-7.852-2.434-10.586.675a7.5 7.5 0 00.675 10.586C467.152 120.766 497 186.742 497 256c0 64.375-25.066 124.895-70.586 170.414a243.07 243.07 0 01-7.555 7.219c-15.77-22.113-35.996-40.934-59.175-55.04 22.03-24.62 35.449-57.105 35.449-92.667v-76.512c0-76.715-62.414-139.133-139.133-139.133S116.867 132.7 116.867 209.414v76.512c0 76.719 62.414 139.133 139.133 139.133 35.598 0 68.113-13.446 92.746-35.52 23.164 13.477 43.309 31.98 58.715 53.938C364.71 478.148 311.809 497 256 497c-55.813 0-108.719-18.855-151.473-53.531a185.543 185.543 0 0136.168-38.508 7.5 7.5 0 10-9.363-11.719 200.563 200.563 0 00-38.21 40.375 246.569 246.569 0 01-7.536-7.203C40.066 380.894 15 320.375 15 256c0-64.371 25.066-124.895 70.586-170.41C131.106 40.066 191.629 15 256 15c47.82 0 94.027 13.973 133.629 40.41a7.5 7.5 0 0010.402-2.074 7.5 7.5 0 00-2.074-10.402C355.883 14.848 306.797 0 256 0 187.621 0 123.332 26.629 74.98 74.98 26.63 123.332 0 187.621 0 256s26.629 132.668 74.98 181.02C123.332 485.37 187.621 512 256 512s132.668-26.629 181.02-74.98C485.37 388.668 512 324.379 512 256c0-73.566-31.703-143.648-86.98-192.277zM256 410.059c-33.012 0-64.145-12.95-87.66-36.47-23.52-23.519-36.473-54.652-36.473-87.663v-76.512c0-33.012 12.953-64.144 36.473-87.66C191.855 98.234 222.988 85.28 256 85.28s64.145 12.953 87.66 36.473c23.52 23.52 36.473 54.648 36.473 87.66v76.512c0 33.011-12.953 64.144-36.473 87.664-23.515 23.52-54.648 36.469-87.66 36.469zm0 0"/></svg>
