<svg height="512pt" viewBox="0 0 512 512" width="512pt" xmlns="http://www.w3.org/2000/svg"><path d="m504.5 256c0 137.242188-111.257812 248.5-248.5 248.5s-248.5-111.257812-248.5-248.5 111.257812-248.5 248.5-248.5 248.5 111.257812 248.5 248.5zm0 0" fill="#fff1b8"/><path d="m256 504.5c111.152344 0 205.257812-72.964844 237.019531-173.621094-19.199219-113.554687-118.003906-200.066406-237.019531-200.066406-119.019531 0-217.820312 86.511719-237.019531 200.066406 31.761719 100.660156 125.867187 173.621094 237.019531 173.621094zm0 0" fill="#ffe888"/><path d="m256 357.09375c-67.675781 0-127.195312 34.964844-161.484375 87.796875 43.429687 37.167969 99.839844 59.609375 161.484375 59.609375s118.050781-22.441406 161.480469-59.605469c-34.289063-52.832031-93.800781-87.800781-161.480469-87.800781zm0 0" fill="#8ed7e8"/><path d="m288.253906 445.613281c27.652344-18.140625 37.210938-48.019531 37.210938-48.019531v-27.574219c-21.546875-8.347656-44.964844-12.925781-69.464844-12.925781-67.679688 0-127.195312 34.964844-161.484375 87.796875 43.429687 37.167969 99.839844 59.609375 161.484375 59.609375 6.429688 0 12.808594-.246094 19.113281-.722656-11.6875-18.730469-6.910156-45.011719 13.140625-58.164063zm0 0" fill="#7ac1dd"/><path d="m256 417.5625c-72.398438 0-131.632812-59.238281-131.632812-131.632812v-76.511719c0-72.398438 59.234374-131.632813 131.632812-131.632813s131.632812 59.234375 131.632812 131.632813v76.511719c0 72.394531-59.234374 131.632812-131.632812 131.632812zm0 0" fill="#abebf4"/><path d="m256 77.785156c-72.398438 0-131.632812 59.234375-131.632812 131.632813v76.511719c0 71.40625 57.628906 130.003906 128.671874 131.597656-34.984374-31.363282-47.109374-84.382813-50.375-130.535156-2.988281-42.261719 11.625-83.613282 39.570313-115.457032 25.007813-28.492187 36.960937-69.980468 41.660156-90.757812-8.996093-1.960938-18.335937-2.992188-27.894531-2.992188zm0 0" fill="#8ed7e8"/><path d="m425.019531 63.722656c-3.109375-2.734375-7.851562-2.433594-10.585937.675782-2.738282 3.113281-2.433594 7.851562.675781 10.585937 52.042969 45.78125 81.890625 111.757813 81.890625 181.015625 0 64.375-25.066406 124.894531-70.585938 170.414062-2.472656 2.472657-4.996093 4.871094-7.554687 7.21875-15.769531-22.113281-35.996094-40.933593-59.175781-55.039062 22.03125-24.621094 35.449218-57.105469 35.449218-92.667969v-76.511719c0-76.714843-62.414062-139.132812-139.132812-139.132812s-139.132812 62.417969-139.132812 139.132812v76.511719c0 76.71875 62.414062 139.132813 139.132812 139.132813 35.597656 0 68.113281-13.445313 92.746094-35.519532 23.164062 13.476563 43.308594 31.980469 58.714844 53.9375-42.75 34.671876-95.652344 53.523438-151.460938 53.523438-55.8125 0-108.71875-18.855469-151.472656-53.53125 10.15625-14.488281 22.296875-27.425781 36.167968-38.507812 3.238282-2.585938 3.765626-7.304688 1.179688-10.542969-2.585938-3.234375-7.304688-3.765625-10.542969-1.175781-14.59375 11.660156-27.414062 25.21875-38.210937 40.375-2.550782-2.34375-5.070313-4.738282-7.535156-7.203126-45.519532-45.519531-70.585938-106.039062-70.585938-170.414062 0-64.371094 25.066406-124.894531 70.585938-170.410156 45.519531-45.523438 106.042968-70.589844 170.414062-70.589844 47.820312 0 94.027344 13.972656 133.628906 40.410156 3.445313 2.300782 8.101563 1.371094 10.402344-2.074218 2.300781-3.445313 1.371094-8.101563-2.074219-10.402344-42.074219-28.085938-91.160156-42.933594-141.957031-42.933594-68.378906 0-132.667969 26.628906-181.019531 74.980469-48.351563 48.351562-74.980469 112.640625-74.980469 181.019531s26.628906 132.667969 74.980469 181.019531c48.351562 48.351563 112.640625 74.980469 181.019531 74.980469s132.667969-26.628906 181.019531-74.980469c48.351563-48.351562 74.980469-112.640625 74.980469-181.019531 0-73.566406-31.703125-143.648438-86.980469-192.277344zm-169.019531 346.335938c-33.011719 0-64.144531-12.949219-87.660156-36.46875-23.519532-23.519532-36.472656-54.652344-36.472656-87.664063v-76.511719c0-33.011718 12.953124-64.144531 36.472656-87.660156 23.515625-23.519531 54.648437-36.472656 87.660156-36.472656s64.144531 12.953125 87.660156 36.472656c23.519532 23.519532 36.472656 54.648438 36.472656 87.660156v76.511719c0 33.011719-12.953124 64.144531-36.472656 87.664063-23.515625 23.519531-54.648437 36.46875-87.660156 36.46875zm0 0"/></svg>