<svg id="Layer_1" enable-background="new 0 0 485.002 485.002" height="512" viewBox="0 0 485.002 485.002" width="512" xmlns="http://www.w3.org/2000/svg"><g><g clip-rule="evenodd" fill-rule="evenodd"><path d="m182.501 350.002h120c0-63.002 90-61.004 90-190.001 0-82.842-67.157-150-150-150s-150 67.158-150 150c0 128.996 90 126.999 90 190.001z" fill="#ffc144"/><path d="m302.501 350.002h-120c-12.375 0-22.5 10.125-22.5 22.5s10.126 22.5 22.5 22.5h120c12.374 0 22.5-10.125 22.5-22.5s-10.125-22.5-22.5-22.5z" fill="#6d91ac"/><path d="m182.501 395.002h120v40.001h-120z" fill="#a7bdcd"/><path d="m302.501 435.003h-120v19.999c0 11 9 20 20 20h80c11 0 20-9 20-20z" fill="#a7bdcd"/><g fill="#fff"><path d="m242.501 243.418c11.046 0 20-8.954 20-20 0-3.506 1.443-7.167 4.408-11.624 4.245-6.38 11.415-14.123 21.361-24.069 5.97-5.97 10.843-13.165 14.215-21.238 3.224-7.717 5.016-16.127 5.016-24.912 0-17.947-7.276-34.197-19.04-45.96-11.764-11.764-28.014-19.04-45.96-19.04-17.947 0-34.197 7.276-45.96 19.04-11.764 11.763-19.04 28.013-19.04 45.96 0 11.046 8.954 20 20 20s20-8.954 20-20c0-6.905 2.798-13.156 7.321-17.679s10.774-7.321 17.679-7.321c6.906 0 13.156 2.798 17.679 7.321s7.321 10.774 7.321 17.679c0 3.454-.676 6.692-1.89 9.6-1.271 3.043-3.2 5.848-5.621 8.269-11.511 11.511-20.157 20.993-26.361 30.319-7.485 11.249-11.128 21.777-11.128 33.655 0 11.045 8.954 20 20 20z"/><path d="m262.501 263.419c0-11.046-8.954-20-20-20s-20 8.954-20 20v.007c0 11.046 8.954 20 20 20s20-8.954 20-20z"/></g></g><g><path d="m242.501 0c-14.284 0-28.48 1.896-42.193 5.637-5.329 1.453-8.47 6.951-7.017 12.279 1.453 5.329 6.956 8.471 12.278 7.016 11.999-3.273 24.425-4.932 36.932-4.932 77.196 0 140 62.804 140 140 0 71.729-28.603 99.744-53.837 124.461-16.435 16.096-32.054 31.411-35.467 55.54h-101.392c-3.413-24.129-19.032-39.444-35.467-55.54-25.234-24.717-53.837-52.732-53.837-124.461 0-33.063 11.746-65.153 33.075-90.36 3.567-4.216 3.042-10.526-1.175-14.093-4.215-3.568-10.526-3.042-14.093 1.174-24.38 28.813-37.807 65.492-37.807 103.279 0 80.135 33.181 112.635 59.843 138.75 15.18 14.868 26.701 26.163 29.498 43.056-12.699 4.423-21.841 16.508-21.841 30.696 0 14.432 9.458 26.69 22.5 30.919v21.582h-2.499c-5.522 0-10 4.477-10 10s4.478 10 10 10h2.499v10c0 16.542 13.458 30 30 30h80c16.542 0 30-13.458 30-30v-10h2.5c5.522 0 10-4.477 10-10s-4.478-10-10-10h-2.5v-21.582c13.042-4.228 22.5-16.487 22.5-30.919 0-14.187-9.142-26.273-21.841-30.696 2.797-16.893 14.318-28.188 29.498-43.056 26.662-26.114 59.843-58.614 59.843-138.75 0-88.224-71.775-160-160-160zm50 455.002c0 5.514-4.486 10-10 10h-80c-5.514 0-10-4.486-10-10v-10h100zm-100-29.999v-20.001h100v20.001zm110-40.002h-120c-6.893 0-12.5-5.607-12.5-12.5s5.607-12.5 12.5-12.5h120c6.893 0 12.5 5.608 12.5 12.5 0 6.893-5.607 12.5-12.5 12.5z"/><path d="m42.499 170c5.522 0 10-4.477 10-10s-4.478-10-10-10h-22.999c-5.522 0-10 4.477-10 10s4.478 10 10 10z"/><path d="m64.294 251.341-39.836 23c-4.783 2.761-6.422 8.877-3.66 13.66 1.853 3.208 5.213 5.002 8.67 5.002 1.696 0 3.416-.433 4.99-1.342l39.836-23c4.783-2.761 6.422-8.877 3.66-13.66-2.761-4.782-8.876-6.422-13.66-3.66z"/><path d="m460.544 274.34-39.836-23c-4.784-2.762-10.9-1.122-13.66 3.66-2.762 4.783-1.123 10.899 3.66 13.66l39.836 23c1.575.91 3.294 1.342 4.99 1.342 3.456 0 6.818-1.794 8.67-5.002 2.762-4.782 1.123-10.898-3.66-13.66z"/><path d="m465.502 150h-22.999c-5.522 0-10 4.477-10 10s4.478 10 10 10h22.999c5.522 0 10-4.477 10-10s-4.478-10-10-10z"/><path d="m415.718 70.001c1.696 0 3.416-.433 4.99-1.342l39.836-23c4.783-2.761 6.422-8.877 3.66-13.66-2.762-4.782-8.876-6.421-13.66-3.66l-39.836 23c-4.783 2.761-6.422 8.877-3.66 13.66 1.852 3.209 5.213 5.002 8.67 5.002z"/><path d="m74.294 51.339-39.836-23c-4.785-2.763-10.899-1.123-13.66 3.66-2.762 4.783-1.123 10.899 3.66 13.66l39.836 23c1.575.909 3.294 1.342 4.99 1.342 3.456 0 6.818-1.794 8.67-5.002 2.762-4.783 1.123-10.899-3.66-13.66z"/><path d="m275.234 217.333c4.261-6.403 12.555-14.986 20.107-22.538 7.016-7.016 12.523-15.243 16.371-24.454 3.841-9.195 5.788-18.874 5.788-28.767 0-20.031-7.802-38.865-21.969-53.032s-33-21.968-53.031-21.968-38.864 7.802-53.031 21.968c-14.167 14.167-21.969 33.001-21.969 53.032 0 16.542 13.458 30 30 30s30-13.458 30-30c0-4.009 1.56-7.776 4.393-10.608 2.832-2.832 6.599-4.392 10.607-4.392s7.775 1.56 10.608 4.392c2.832 2.832 4.392 6.599 4.392 10.608 0 2.036-.376 3.969-1.118 5.745-.756 1.809-1.922 3.509-3.465 5.053-13.635 13.635-21.636 22.863-27.614 31.85-8.734 13.126-12.803 25.581-12.803 39.195 0 7.678 2.903 14.689 7.664 20.001-4.762 5.313-7.664 12.326-7.664 20.008 0 16.542 13.458 30 30 30s30-13.458 30-30v-.007c0-7.678-2.903-14.689-7.664-20.001 4.761-5.312 7.664-12.323 7.664-20.001.001-.9.476-2.688 2.734-6.084zm-33.279-22.031c5.196-7.812 12.47-16.151 25.106-28.788 3.395-3.396 6.012-7.26 7.776-11.485 1.767-4.23 2.663-8.757 2.663-13.454 0-9.351-3.641-18.141-10.25-24.75-6.609-6.61-15.398-10.25-24.75-10.25s-18.141 3.64-24.749 10.25c-6.61 6.609-10.251 15.399-10.251 24.75 0 5.514-4.486 10-10 10s-10-4.486-10-10c0-14.689 5.722-28.5 16.111-38.889s24.2-16.111 38.889-16.111 28.5 5.722 38.889 16.111c10.39 10.389 16.111 24.2 16.111 38.889 0 7.233-1.428 14.318-4.243 21.058-2.838 6.794-6.896 12.857-12.058 18.021-11.848 11.846-18.399 19.263-22.617 25.601-4.149 6.237-6.082 11.691-6.082 17.163 0 5.514-4.486 10-10 10s-10-4.486-10-10c.001-9.62 2.917-18.291 9.455-28.116zm10.546 68.124c0 5.514-4.486 10-10 10s-10-4.486-10-10.007c0-5.514 4.486-10 10-10s10 4.486 10 10z"/><path d="m161.801 43.537c5.522 0 10-4.477 10-10s-4.478-10-10-10h-.008c-5.522 0-9.996 4.477-9.996 10s4.481 10 10.004 10z"/></g></g></svg>