<svg viewBox="0 0 512 512.00012" xmlns="http://www.w3.org/2000/svg"><path d="m496.4375 275.683594-34.527344 35.507812 12.160156 47.972656c3.757813 14.835938-4.984374 29.964844-19.71875 34.113282l-47.65625 13.421875-13.417968 47.65625c-4.148438 14.730469-19.277344 23.476562-34.117188 19.714843l-47.96875-12.160156-35.507812 34.527344c-10.957032 10.65625-28.410156 10.65625-39.367188 0l-35.507812-34.527344-47.972656 12.160156c-14.835938 3.761719-29.964844-4.984374-34.113282-19.714843l-13.421875-47.65625-47.652343-13.421875c-14.734376-4.148438-23.476563-19.277344-19.71875-34.117188l12.160156-47.96875-34.527344-35.507812c-10.65625-10.957032-10.65625-28.410156 0-39.367188l34.527344-35.507812-12.160156-47.972656c-3.757813-14.835938 4.984374-29.964844 19.71875-34.113282l47.65625-13.421875 13.417968-47.652343c4.148438-14.734376 19.277344-23.480469 34.117188-19.71875l47.96875 12.160156 35.507812-34.527344c10.957032-10.65625 28.410156-10.65625 39.367188 0l35.507812 34.527344 47.972656-12.160156c14.835938-3.761719 29.964844 4.984374 34.113282 19.71875l13.421875 47.652343 47.652343 13.421875c14.734376 4.148438 23.480469 19.277344 19.71875 34.113282l-12.160156 47.972656 34.527344 35.507812c10.65625 10.957032 10.65625 28.410156 0 39.367188zm0 0" fill="#ffde55"/><path d="m227.90625 354.863281c-88.3125-107.484375-66.378906-258.941406-52.117188-311.113281l-22.949218-5.820312c-14.839844-3.757813-29.96875 4.984374-34.117188 19.71875l-13.417968 47.65625-47.65625 13.417968c-14.734376 4.148438-23.476563 19.277344-19.714844 34.117188l12.160156 47.972656-34.527344 35.503906c-10.660156 10.960938-10.660156 28.410156 0 39.367188l34.527344 35.507812-12.160156 47.972656c-3.761719 14.835938 4.980468 29.964844 19.714844 34.113282l47.65625 13.421875 13.417968 47.65625c4.148438 14.730469 19.28125 23.476562 34.117188 19.714843l47.972656-12.160156 35.503906 34.527344c10.960938 10.65625 28.410156 10.65625 39.371094 0l21.523438-20.933594c-13.8125-37.804687-35.476563-79.472656-69.304688-120.640625zm0 0" fill="#ffc757"/><path d="m426.59375 256c0 94.214844-76.378906 170.59375-170.59375 170.59375s-170.59375-76.378906-170.59375-170.59375 76.378906-170.59375 170.59375-170.59375 170.59375 76.378906 170.59375 170.59375zm0 0" fill="#ffeb99"/><path d="m227.90625 354.863281c-62.25-75.765625-69.722656-173.382812-63.714844-242.671875-47.378906 30.3125-78.785156 83.390625-78.785156 143.808594 0 94.214844 76.378906 170.59375 170.59375 170.59375 6.421875 0 12.777344-.355469 19.015625-1.046875-12.230469-23.171875-27.660156-47.011719-47.109375-70.683594zm0 0" fill="#ffe36c"/><path d="m256 296.542969c-15.515625 0-28.09375-12.578125-28.09375-28.09375v-20.421875c0-4.238282 3.433594-7.667969 7.671875-7.667969h40.847656c4.234375 0 7.667969 3.429687 7.667969 7.667969v20.421875c0 15.515625-12.578125 28.09375-28.09375 28.09375zm0 0" fill="#57565c"/><path d="m191.996094 268.449219c0-13.179688-13.417969-23.863281-29.964844-23.863281-16.550781 0-29.964844 10.683593-29.964844 23.863281 0 13.179687 13.414063 23.863281 29.964844 23.863281 16.546875 0 29.964844-10.683594 29.964844-23.863281zm0 0" fill="#ffa6bb"/><path d="m379.933594 268.449219c0-13.179688-13.414063-23.863281-29.964844-23.863281-16.546875 0-29.964844 10.683593-29.964844 23.863281 0 13.179687 13.417969 23.863281 29.964844 23.863281 16.550781 0 29.964844-10.683594 29.964844-23.863281zm0 0" fill="#ffa6bb"/><path d="m336.632812 255.351562c-4.140624 0-7.496093-3.359374-7.496093-7.5v-12.445312c0-4.140625 3.355469-7.5 7.496093-7.5 4.140626 0 7.5 3.359375 7.5 7.5v12.445312c0 4.140626-3.359374 7.5-7.5 7.5zm0 0"/><path d="m175.367188 255.351562c-4.144532 0-7.5-3.359374-7.5-7.5v-12.445312c0-4.140625 3.355468-7.5 7.5-7.5 4.140624 0 7.496093 3.359375 7.496093 7.5v12.445312c0 4.140626-3.355469 7.5-7.496093 7.5zm0 0"/><path d="m256 512c-8.964844 0-17.925781-3.394531-24.910156-10.1875l-32.5-31.605469-43.910156 11.128907c-18.921876 4.800781-37.886719-6.164063-43.175782-24.949219l-12.277344-43.609375-43.613281-12.28125c-18.785156-5.289063-29.746093-24.257813-24.949219-43.175782l11.128907-43.910156-31.605469-32.5c-13.582031-13.96875-13.582031-35.851562 0-49.820312l31.605469-32.503906-11.128907-43.90625c-4.796874-18.921876 6.164063-37.886719 24.949219-43.175782l43.613281-12.277344 12.277344-43.609374c5.289063-18.789063 24.257813-29.753907 43.175782-24.953126l43.90625 11.128907 32.503906-31.605469c13.964844-13.585938 35.851562-13.582031 49.820312 0l32.5 31.605469 43.910156-11.128907c18.917969-4.792968 37.882813 6.164063 43.175782 24.953126 1.121094 3.984374-1.199219 8.125-5.1875 9.25-3.988282 1.113281-8.125-1.199219-9.25-5.1875-3.070313-10.902344-14.078125-17.261719-25.054688-14.480469l-47.972656 12.160156c-2.523438.640625-5.199219-.078125-7.070312-1.894531l-35.503907-34.527344c-8.105469-7.882812-20.808593-7.882812-28.914062 0l-35.507813 34.53125c-1.867187 1.8125-4.542968 2.53125-7.070312 1.890625l-47.96875-12.160156c-10.980469-2.785157-21.988282 3.578125-25.058594 14.480469l-13.417969 47.65625c-.707031 2.511718-2.671875 4.476562-5.183593 5.183593l-47.65625 13.417969c-10.902344 3.070312-17.265626 14.078125-14.480469 25.058594l12.160156 47.972656c.640625 2.523438-.074219 5.199219-1.890625 7.070312l-34.53125 35.503907c-7.882812 8.105469-7.882812 20.808593 0 28.914062l34.53125 35.507813c1.816406 1.867187 2.53125 4.542968 1.890625 7.066406l-12.160156 47.972656c-2.785157 10.980469 3.578125 21.988282 14.480469 25.054688l47.65625 13.421875c2.511718.707031 4.476562 2.671875 5.183593 5.183593l13.417969 47.65625c3.070312 10.902344 14.078125 17.261719 25.058594 14.480469l47.972656-12.160156c2.523438-.640625 5.199219.074219 7.070312 1.890625l35.503907 34.53125c8.105469 7.882812 20.808593 7.882812 28.914062 0l35.507813-34.53125c1.867187-1.8125 4.542968-2.53125 7.070312-1.890625l47.96875 12.160156c10.980469 2.777344 21.988282-3.578125 25.058594-14.480469l13.417969-47.65625c.707031-2.511718 2.671875-4.476562 5.183593-5.183593l47.65625-13.417969c10.902344-3.070312 17.265626-14.078125 14.480469-25.054688l-12.160156-47.972656c-.640625-2.527344.074219-5.203125 1.890625-7.070312l34.53125-35.503906c7.882812-8.109376 7.882812-20.808594 0-28.917969l-34.53125-35.503907c-1.816406-1.871093-2.53125-4.546874-1.890625-7.070312l12.160156-47.96875c2.785157-10.980469-3.578125-21.988281-14.480469-25.058594l-47.65625-13.417968c-2.511718-.707032-4.476562-2.671876-5.183593-5.1875l-4.59375-16.308594c-1.125-3.988282 1.199219-8.128906 5.183593-9.25 3.988282-1.125 8.128907 1.199218 9.25 5.183594l3.453126 12.265624 43.613281 12.28125c18.785156 5.289063 29.746093 24.253907 24.949219 43.175782l-11.128907 43.90625 31.605469 32.5c13.582031 13.96875 13.582031 35.855468 0 49.824218l-31.605469 32.5 11.128907 43.910157c4.796874 18.917969-6.164063 37.882812-24.949219 43.175781l-43.613281 12.277344-12.277344 43.609375c-5.292969 18.789062-24.253906 29.75-43.175782 24.953125l-43.90625-11.128906-32.503906 31.601562c-6.984375 6.792969-15.945312 10.1875-24.910156 10.1875zm0 0"/><path d="m256 434.09375c-22.675781 0-44.773438-4.207031-65.675781-12.503906-3.847657-1.527344-5.730469-5.886719-4.203125-9.734375 1.527344-3.851563 5.886718-5.730469 9.734375-4.203125 19.132812 7.59375 39.371093 11.445312 60.144531 11.445312 89.933594 0 163.097656-73.167968 163.097656-163.097656 0-89.933594-73.167968-163.097656-163.097656-163.097656s-163.097656 73.167968-163.097656 163.097656c0 28.320312 7.367187 56.210938 21.308594 80.660156 13.523437 23.722656 32.960937 43.847656 56.207031 58.207032 3.523437 2.175781 4.617187 6.796874 2.441406 10.320312s-6.796875 4.617188-10.320313 2.4375c-25.375-15.671875-46.589843-37.644531-61.355468-63.539062-15.226563-26.707032-23.277344-57.164063-23.277344-88.085938 0-98.199219 79.894531-178.09375 178.09375-178.09375s178.09375 79.894531 178.09375 178.09375-79.894531 178.09375-178.09375 178.09375zm0 0"/><path d="m256 304.039062c-19.625 0-35.589844-15.964843-35.589844-35.589843v-20.421875c0-8.363282 6.804688-15.167969 15.167969-15.167969h40.847656c8.359375 0 15.164063 6.804687 15.164063 15.167969v20.421875c0 19.625-15.964844 35.589843-35.589844 35.589843zm-20.59375-56.011718v20.421875c0 11.355469 9.238281 20.59375 20.59375 20.59375s20.59375-9.238281 20.59375-20.59375v-20.421875c0-.09375-41.1875-.09375-41.1875 0zm0 0"/></svg>