<svg viewBox="0 0 512 512" xmlns="http://www.w3.org/2000/svg"><path d="M496.438 275.684L461.91 311.19l12.16 47.973c3.758 14.836-4.984 29.965-19.718 34.113L406.695 406.7l-13.418 47.656c-4.148 14.73-19.277 23.477-34.117 19.715l-47.969-12.16-35.507 34.528c-10.957 10.656-28.41 10.656-39.368 0L200.81 461.91l-47.973 12.16c-14.836 3.762-29.965-4.984-34.113-19.715L105.3 406.7l-47.653-13.422C42.914 389.13 34.172 374 37.93 359.16l12.16-47.969-34.527-35.507c-10.657-10.957-10.657-28.41 0-39.368L50.09 200.81l-12.16-47.973C34.172 138 42.914 122.87 57.648 118.723l47.657-13.422 13.418-47.653C122.87 42.914 138 34.168 152.84 37.93l47.969 12.16 35.507-34.527c10.957-10.657 28.41-10.657 39.368 0L311.19 50.09l47.973-12.16c14.836-3.762 29.965 4.984 34.113 19.718l13.422 47.653 47.653 13.422c14.734 4.148 23.48 19.277 19.718 34.113l-12.16 47.973 34.528 35.507c10.656 10.957 10.656 28.41 0 39.368zm0 0" fill="#ffde55"/><path d="M227.906 354.863C139.594 247.38 161.527 95.922 175.79 43.75l-22.95-5.82c-14.839-3.758-29.968 4.984-34.116 19.718l-13.418 47.657-47.657 13.418C42.914 122.87 34.172 138 37.934 152.84l12.16 47.972-34.528 35.504c-10.66 10.961-10.66 28.41 0 39.368l34.528 35.507-12.16 47.973c-3.762 14.836 4.98 29.965 19.714 34.113l47.657 13.422 13.418 47.656c4.148 14.73 19.28 23.477 34.117 19.715l47.972-12.16 35.504 34.527c10.961 10.657 28.41 10.657 39.371 0l21.524-20.933c-13.813-37.805-35.477-79.473-69.305-120.64zm0 0" fill="#ffc757"/><path d="M426.594 256c0 94.215-76.38 170.594-170.594 170.594S85.406 350.214 85.406 256 161.786 85.406 256 85.406 426.594 161.786 426.594 256zm0 0" fill="#ffeb99"/><path d="M227.906 354.863c-62.25-75.765-69.722-173.383-63.715-242.672C116.812 142.504 85.406 195.582 85.406 256c0 94.215 76.38 170.594 170.594 170.594 6.422 0 12.777-.356 19.016-1.047-12.23-23.172-27.66-47.012-47.11-70.684zm0 0" fill="#ffe36c"/><path d="M256 296.543c-15.516 0-28.094-12.578-28.094-28.094v-20.422a7.667 7.667 0 017.672-7.668h40.848a7.666 7.666 0 017.668 7.668v20.422c0 15.516-12.578 28.094-28.094 28.094zm0 0" fill="#57565c"/><path d="M191.996 268.45c0-13.18-13.418-23.864-29.965-23.864-16.55 0-29.965 10.684-29.965 23.863 0 13.18 13.414 23.864 29.965 23.864 16.547 0 29.965-10.684 29.965-23.864zm0 0M379.934 268.45c0-13.18-13.414-23.864-29.965-23.864-16.547 0-29.965 10.684-29.965 23.863 0 13.18 13.418 23.864 29.965 23.864 16.55 0 29.965-10.684 29.965-23.864zm0 0" fill="#ffa6bb"/><path d="M336.633 255.352a7.499 7.499 0 01-7.496-7.5v-12.446a7.499 7.499 0 1114.996 0v12.446c0 4.14-3.36 7.5-7.5 7.5zm0 0M175.367 255.352a7.5 7.5 0 01-7.5-7.5v-12.446a7.499 7.499 0 1114.996 0v12.446c0 4.14-3.355 7.5-7.496 7.5zm0 0"/><path d="M256 512c-8.965 0-17.926-3.395-24.91-10.188l-32.5-31.605-43.91 11.129c-18.922 4.8-37.887-6.164-43.176-24.95l-12.277-43.609-43.614-12.28c-18.785-5.29-29.746-24.259-24.949-43.177l11.129-43.91-31.605-32.5c-13.583-13.969-13.583-35.851 0-49.82l31.605-32.504-11.129-43.906c-4.797-18.922 6.164-37.887 24.95-43.176l43.613-12.277 12.277-43.61c5.289-18.789 24.258-29.754 43.176-24.953l43.906 11.129 32.504-31.605c13.965-13.586 35.851-13.583 49.82 0l32.5 31.605 43.91-11.129c18.918-4.793 37.883 6.164 43.176 24.953a7.501 7.501 0 01-5.187 9.25c-3.989 1.113-8.125-1.199-9.25-5.187-3.07-10.903-14.079-17.262-25.055-14.48L313.03 57.36a7.502 7.502 0 01-7.07-1.895l-35.504-34.527c-8.105-7.883-20.809-7.883-28.914 0l-35.508 34.53a7.505 7.505 0 01-7.07 1.891L150.996 45.2c-10.98-2.785-21.988 3.578-25.058 14.48l-13.418 47.657a7.497 7.497 0 01-5.184 5.184L59.68 125.938c-10.903 3.07-17.266 14.078-14.48 25.058l12.16 47.973a7.5 7.5 0 01-1.891 7.07l-34.531 35.504c-7.883 8.105-7.883 20.809 0 28.914l34.53 35.508a7.49 7.49 0 011.891 7.066L45.2 361.004c-2.785 10.98 3.578 21.988 14.48 25.055l47.657 13.421a7.497 7.497 0 015.184 5.184l13.418 47.656c3.07 10.903 14.078 17.262 25.058 14.48l47.973-12.16a7.5 7.5 0 017.07 1.891l35.504 34.531c8.105 7.883 20.809 7.883 28.914 0l35.508-34.53a7.505 7.505 0 017.07-1.891l47.969 12.16c10.98 2.777 21.988-3.578 25.059-14.48l13.417-47.657a7.497 7.497 0 015.184-5.184l47.656-13.417c10.903-3.07 17.266-14.079 14.48-25.055l-12.16-47.973a7.495 7.495 0 011.891-7.07l34.531-35.504c7.883-8.11 7.883-20.809 0-28.918l-34.53-35.504a7.5 7.5 0 01-1.891-7.07L466.8 151c2.785-10.98-3.578-21.988-14.48-25.059l-47.657-13.418a7.495 7.495 0 01-5.184-5.187l-4.593-16.309a7.495 7.495 0 015.183-9.25 7.495 7.495 0 019.25 5.184l3.453 12.266 43.614 12.28c18.785 5.29 29.746 24.255 24.949 43.177l-11.129 43.906 31.606 32.5c13.582 13.969 13.582 35.855 0 49.824l-31.606 32.5 11.129 43.91c4.797 18.918-6.164 37.883-24.95 43.176l-43.613 12.277-12.277 43.61c-5.293 18.789-24.254 29.75-43.176 24.953l-43.906-11.13-32.504 31.603C273.926 508.605 264.965 512 256 512zm0 0"/><path d="M256 434.094c-22.676 0-44.773-4.207-65.676-12.504a7.499 7.499 0 01-4.203-9.735 7.496 7.496 0 019.734-4.203c19.133 7.594 39.372 11.446 60.145 11.446 89.934 0 163.098-73.168 163.098-163.098 0-89.934-73.168-163.098-163.098-163.098S92.902 166.07 92.902 256c0 28.32 7.368 56.21 21.309 80.66 13.523 23.723 32.96 43.848 56.207 58.207 3.523 2.176 4.617 6.797 2.441 10.32s-6.797 4.618-10.32 2.438c-25.375-15.672-46.59-37.645-61.355-63.54C85.957 317.38 77.906 286.923 77.906 256c0-98.2 79.895-178.094 178.094-178.094S434.094 157.801 434.094 256 354.199 434.094 256 434.094zm0 0"/><path d="M256 304.04c-19.625 0-35.59-15.966-35.59-35.59v-20.423c0-8.363 6.805-15.168 15.168-15.168h40.848c8.36 0 15.164 6.805 15.164 15.168v20.422c0 19.625-15.965 35.59-35.59 35.59zm-20.594-56.013v20.422c0 11.356 9.239 20.594 20.594 20.594s20.594-9.238 20.594-20.594v-20.422c0-.093-41.188-.093-41.188 0zm0 0"/></svg>