<svg viewBox="0 0 512.005 512.005" xmlns="http://www.w3.org/2000/svg"><path d="M219.421 310.029l-38.936 38.936c-10.935 10.935-28.663 10.935-39.598 0-10.935-10.935-10.935-28.663 0-39.598l27.435-27.435z" fill="#ffddcf"/><path d="M117.575 208.182l-38.936 38.936c-10.935 10.935-28.663 10.935-39.598 0-10.935-10.935-10.935-28.663 0-39.598l27.435-27.435a181.448 181.448 0 01128.303-53.145c66.713 0 128.046 36.609 159.709 95.33L384 277.001l-39.899 150.983z" fill="#ffddcf"/><path d="M433.343 481.298l-77.274-20.706c-10.669-2.859-17.001-13.826-14.142-24.495l43.482-162.276c2.859-10.669 13.826-17.001 24.495-14.142l77.274 20.706c10.669 2.859 17.001 13.826 14.142 24.495l-43.482 162.276c-2.859 10.669-13.825 17.001-24.495 14.142z" fill="#91def5"/><path d="M295.721 30.003l62.216 62.216L121.075 329.08l-62.216-62.216z" fill="#ffcb7c"/><path d="M10 377.984L58.839 266.92l62.225 62.226z" fill="#98a1b3"/><path d="M256.466 298.519l-60.583-60.583c-12.497-12.497-32.758-12.497-45.255 0s-12.497 32.758 0 45.255l60.583 60.583c21.915 51.09 72.162 84.211 127.754 84.211h5.136z" fill="#ffddcf"/><path d="M489.765 270.726l-77.274-20.705c-10.239-2.743-20.679.186-27.989 6.843l-21.212-39.339c-13.197-24.475-31.711-45.893-53.945-62.517l55.689-55.689c3.905-3.905 3.905-10.237 0-14.143L302.809 22.95c-3.905-3.904-10.237-3.904-14.143 0l-93.991 93.991c-25.233.014-49.846 4.915-73.16 14.572-23.345 9.67-44.242 23.633-62.11 41.5L31.97 200.449c-7.178 7.178-11.13 16.72-11.13 26.87s3.953 19.692 11.13 26.87a37.753 37.753 0 0017.207 9.863L.847 373.959a10 10 0 0013.18 13.18l109.921-48.336a37.763 37.763 0 009.869 17.234c7.408 7.408 17.139 11.112 26.87 11.112s19.462-3.704 26.87-11.112l10.888-10.888 4.36 4.36a148.813 148.813 0 00128.643 88.265c-.764 6.39.542 12.827 3.818 18.5 4.006 6.94 10.476 11.904 18.216 13.978l77.274 20.706a29.939 29.939 0 007.757 1.025c13.244 0 25.398-8.853 28.985-22.239l9.829-36.684c1.43-5.334-1.736-10.817-7.071-12.247-5.332-1.43-10.818 1.736-12.247 7.071l-9.829 36.684c-1.427 5.327-6.921 8.5-12.248 7.071l-77.274-20.706a9.935 9.935 0 01-6.072-4.659 9.938 9.938 0 01-.999-7.588l43.481-162.275c1.428-5.326 6.925-8.496 12.248-7.071l77.274 20.705c5.326 1.428 8.499 6.922 7.071 12.248l-10.354 38.643c-1.43 5.334 1.736 10.817 7.071 12.247 5.331 1.43 10.818-1.736 12.247-7.071l10.354-38.643c4.282-15.979-5.235-32.461-21.214-36.743zM343.821 92.247L204.079 231.989l-1.125-1.125c-5.698-5.698-12.749-9.545-20.424-11.267L326.85 75.276zm-48.083-48.083l16.97 16.97L89.951 283.89l-16.97-16.97zM46.112 240.047c-3.4-3.399-5.272-7.92-5.272-12.728s1.872-9.328 5.272-12.728l27.435-27.436c27.277-27.277 62.128-44.229 99.81-48.897L71.567 240.047c-7.017 7.02-18.437 7.018-25.455 0zm15.995 44.284l41.546 41.546-74.155 32.609zm58.958 30.672l-16.97-16.97 28.217-28.217a41.744 41.744 0 0011.246 20.446l1.125 1.125zm52.348 26.891c-7.019 7.018-18.438 7.017-25.456.001-7.018-7.02-7.018-18.439 0-25.457l10.888-10.888 25.456 25.455zm163.028 76.044a128.854 128.854 0 01-116.04-78.106 10.01 10.01 0 00-2.119-3.129l-60.583-60.583c-8.578-8.577-8.578-22.535 0-31.112 4.155-4.155 9.68-6.444 15.556-6.444s11.401 2.289 15.556 6.444l60.583 60.583c3.905 3.904 10.237 3.904 14.143 0 3.905-3.905 3.905-10.237 0-14.143l-45.316-45.316 76.804-76.804c20.953 15.116 38.383 34.917 50.662 57.689l27.998 51.923z"/><g><path d="M479.32 397.003c-2.64 0-5.21-1.07-7.08-2.931a10.08 10.08 0 01-2.92-7.069c0-2.641 1.06-5.21 2.92-7.08 1.86-1.86 4.44-2.92 7.08-2.92 2.63 0 5.21 1.06 7.07 2.92a10.097 10.097 0 012.93 7.08c0 2.63-1.07 5.21-2.93 7.069a10.09 10.09 0 01-7.07 2.931z"/></g></svg>