<?xml version="1.0" standalone="no"?>
<!DOCTYPE svg PUBLIC "-//W3C//DTD SVG 20010904//EN"
 "http://www.w3.org/TR/2001/REC-SVG-20010904/DTD/svg10.dtd">
<svg version="1.0" xmlns="http://www.w3.org/2000/svg"
 width="500.000000pt" height="500.000000pt" viewBox="0 0 500.000000 500.000000"
 preserveAspectRatio="xMidYMid meet">
<metadata>
Created by potrace 1.11, written by Peter Selinger 2001-2013
</metadata>
<g transform="translate(0.000000,500.000000) scale(0.100000,-0.100000)"
fill="#000000" stroke="none">
<path d="M2410 4317 c-3 -3 -36 -7 -75 -10 -293 -23 -665 -171 -936 -372 -125
-93 -276 -244 -375 -375 -26 -36 -52 -66 -56 -68 -5 -2 -8 -8 -8 -14 0 -6 -11
-25 -24 -42 -36 -47 -130 -230 -170 -330 -67 -165 -113 -344 -134 -521 -9 -77
-9 -360 0 -445 40 -376 201 -753 447 -1050 56 -68 212 -222 260 -258 20 -15
38 -30 41 -33 3 -4 53 -38 111 -78 233 -155 512 -262 799 -304 95 -14 424 -16
500 -2 243 43 370 79 530 153 30 14 60 26 65 28 6 1 39 19 75 40 36 21 77 45
92 54 116 64 358 275 453 395 22 28 45 55 52 60 30 26 151 224 208 340 74 150
123 292 159 455 34 158 41 228 41 425 0 252 -23 395 -102 635 -30 94 -111 277
-135 309 -10 13 -18 28 -18 33 0 5 -28 50 -61 101 -151 226 -331 409 -540 548
-124 82 -143 93 -264 149 -142 67 -316 124 -445 146 -14 3 -50 9 -80 15 -55
10 -402 24 -410 16z"/>
</g>
</svg>
